<svg version="1.0" xmlns="http://www.w3.org/2000/svg"
 viewBox="0 0 512.000000 512.000000"
>

<g transform="translate(0.000000,512.000000) scale(0.100000,-0.100000)"
fill="#5063BF" stroke="none">
<path d="M2460 4850 c-1020 -89 -1848 -809 -2070 -1801 -70 -312 -67 -711 7
-1024 77 -326 239 -659 448 -920 74 -92 221 -241 320 -325 324 -271 719 -447
1148 -511 238 -35 583 -23 812 27 606 135 1116 488 1453 1008 493 759 488
1756 -12 2515 -365 554 -941 918 -1606 1015 -131 19 -375 27 -500 16z m-281
-1156 c12 -9 19 -20 14 -24 -4 -4 -60 -25 -123 -45 -198 -65 -455 -191 -540
-264 l-25 -22 40 17 c388 157 642 218 1000 239 335 20 824 -77 1164 -231 87
-40 93 -41 55 -12 -111 88 -339 201 -543 269 -64 22 -122 42 -130 44 -11 4
-10 9 4 25 23 25 84 26 210 4 185 -31 422 -128 580 -234 l71 -48 66 -138 c220
-459 358 -1000 358 -1398 l0 -82 -62 -61 c-201 -197 -470 -314 -779 -339 l-87
-7 -88 108 c-49 58 -90 112 -92 119 -2 8 23 22 65 36 152 51 305 143 398 240
l50 52 -55 -32 c-200 -116 -444 -211 -660 -258 -120 -26 -137 -27 -430 -27
-295 0 -309 1 -433 28 -70 15 -175 43 -235 63 -109 36 -334 139 -426 195 l-51
31 55 -57 c90 -93 246 -186 393 -235 42 -14 67 -28 65 -36 -2 -7 -42 -60 -91
-118 l-87 -106 -48 0 c-26 0 -90 7 -142 15 -268 40 -486 145 -678 326 l-70 67
9 155 c24 437 157 928 362 1337 62 123 64 126 132 172 202 137 502 242 705
247 37 1 63 -4 79 -15z"/>
<path d="M2008 2675 c-64 -21 -149 -100 -179 -167 -34 -78 -32 -183 5 -260 52
-110 149 -168 276 -168 165 0 291 129 291 300 1 166 -120 296 -283 306 -39 2
-81 -2 -110 -11z"/>
<path d="M3095 2676 c-64 -20 -99 -42 -139 -86 -178 -197 -43 -513 219 -513
141 0 249 84 290 228 32 110 -2 223 -92 305 -80 74 -180 97 -278 66z"/>
</g>
</svg>
