<svg width="40" height="40" viewBox="0 0 40 40" fill="none" xmlns="http://www.w3.org/2000/svg">
<rect width="40" height="40" rx="20" fill="url(#paint0_linear_632_2127)"/>
<path d="M30.5125 8.72754L20.9434 15.7954L22.7228 11.6301L30.5125 8.72754Z" fill="#E17726" stroke="#E17726" stroke-width="0.25" stroke-linecap="round" stroke-linejoin="round"/>
<path d="M8.44043 8.72754L17.9243 15.8614L16.2301 11.6301L8.44043 8.72754Z" fill="#E27625" stroke="#E27625" stroke-width="0.25" stroke-linecap="round" stroke-linejoin="round"/>
<path d="M27.0676 25.1152L24.5215 28.9979L29.9733 30.4963L31.5351 25.2L27.0676 25.1152Z" fill="#E27625" stroke="#E27625" stroke-width="0.25" stroke-linecap="round" stroke-linejoin="round"/>
<path d="M7.42773 25.2L8.97999 30.4963L14.4224 28.9979L11.8857 25.1152L7.42773 25.2Z" fill="#E27625" stroke="#E27625" stroke-width="0.25" stroke-linecap="round" stroke-linejoin="round"/>
<path d="M14.1287 18.5562L12.6143 20.8368L18.0093 21.0818L17.8294 15.2861L14.1287 18.5562Z" fill="#E27625" stroke="#E27625" stroke-width="0.25" stroke-linecap="round" stroke-linejoin="round"/>
<path d="M24.824 18.5567L21.0663 15.2207L20.9434 21.0823L26.3384 20.8373L24.824 18.5567Z" fill="#E27625" stroke="#E27625" stroke-width="0.25" stroke-linecap="round" stroke-linejoin="round"/>
<path d="M14.4229 28.9984L17.6882 27.4246L14.8772 25.2383L14.4229 28.9984Z" fill="#E27625" stroke="#E27625" stroke-width="0.25" stroke-linecap="round" stroke-linejoin="round"/>
<path d="M21.2656 27.4246L24.5215 28.9984L24.0767 25.2383L21.2656 27.4246Z" fill="#E27625" stroke="#E27625" stroke-width="0.25" stroke-linecap="round" stroke-linejoin="round"/>
<path d="M24.5206 28.9986L21.2646 27.4248L21.5297 29.5357L21.5013 30.431L24.5206 28.9986Z" fill="#D5BFB2" stroke="#D5BFB2" stroke-width="0.25" stroke-linecap="round" stroke-linejoin="round"/>
<path d="M14.4219 28.9986L17.4507 30.431L17.4317 29.5357L17.6873 27.4248L14.4219 28.9986Z" fill="#D5BFB2" stroke="#D5BFB2" stroke-width="0.25" stroke-linecap="round" stroke-linejoin="round"/>
<path d="M17.5078 23.8438L14.8008 23.0522L16.7128 22.1758L17.5078 23.8438Z" fill="#233447" stroke="#233447" stroke-width="0.25" stroke-linecap="round" stroke-linejoin="round"/>
<path d="M21.4453 23.8438L22.2404 22.1758L24.1618 23.0522L21.4453 23.8438Z" fill="#233447" stroke="#233447" stroke-width="0.25" stroke-linecap="round" stroke-linejoin="round"/>
<path d="M14.4224 28.9979L14.8956 25.1152L11.8857 25.2001L14.4224 28.9979Z" fill="#CC6228" stroke="#CC6228" stroke-width="0.25" stroke-linecap="round" stroke-linejoin="round"/>
<path d="M24.0576 25.1152L24.5214 28.9979L27.0675 25.2001L24.0576 25.1152Z" fill="#CC6228" stroke="#CC6228" stroke-width="0.25" stroke-linecap="round" stroke-linejoin="round"/>
<path d="M26.3384 20.8369L20.9434 21.0819L21.445 23.8431L22.2401 22.1751L24.1615 23.0515L26.3384 20.8369Z" fill="#CC6228" stroke="#CC6228" stroke-width="0.25" stroke-linecap="round" stroke-linejoin="round"/>
<path d="M14.8007 23.0515L16.7126 22.1751L17.5077 23.8431L18.0093 21.0819L12.6143 20.8369L14.8007 23.0515Z" fill="#CC6228" stroke="#CC6228" stroke-width="0.25" stroke-linecap="round" stroke-linejoin="round"/>
<path d="M12.6143 20.8369L14.8764 25.2379L14.8007 23.0515L12.6143 20.8369Z" fill="#E27525" stroke="#E27525" stroke-width="0.25" stroke-linecap="round" stroke-linejoin="round"/>
<path d="M24.1613 23.0515L24.0762 25.2379L26.3383 20.8369L24.1613 23.0515Z" fill="#E27525" stroke="#E27525" stroke-width="0.25" stroke-linecap="round" stroke-linejoin="round"/>
<path d="M18.0095 21.082L17.5078 23.8433L18.142 27.1038L18.284 22.8066L18.0095 21.082Z" fill="#E27525" stroke="#E27525" stroke-width="0.25" stroke-linecap="round" stroke-linejoin="round"/>
<path d="M20.9438 21.082L20.6787 22.7972L20.8112 27.1038L21.4454 23.8433L20.9438 21.082Z" fill="#E27525" stroke="#E27525" stroke-width="0.25" stroke-linecap="round" stroke-linejoin="round"/>
<path d="M21.4447 23.8433L20.8105 27.104L21.2649 27.4244L24.076 25.2381L24.1612 23.0518L21.4447 23.8433Z" fill="#F5841F" stroke="#F5841F" stroke-width="0.25" stroke-linecap="round" stroke-linejoin="round"/>
<path d="M14.8008 23.0518L14.8766 25.2381L17.6876 27.4244L18.1419 27.104L17.5078 23.8433L14.8008 23.0518Z" fill="#F5841F" stroke="#F5841F" stroke-width="0.25" stroke-linecap="round" stroke-linejoin="round"/>
<path d="M21.5017 30.4305L21.5301 29.5352L21.284 29.3279H17.6684L17.4317 29.5352L17.4507 30.4305L14.4219 28.998L15.482 29.865L17.6305 31.3446H21.3124L23.4704 29.865L24.521 28.998L21.5017 30.4305Z" fill="#C0AC9D" stroke="#C0AC9D" stroke-width="0.25" stroke-linecap="round" stroke-linejoin="round"/>
<path d="M21.265 27.424L20.8107 27.1035H18.1416L17.6872 27.424L17.4316 29.5349L17.6683 29.3275H21.2839L21.53 29.5349L21.265 27.424Z" fill="#161616" stroke="#161616" stroke-width="0.25" stroke-linecap="round" stroke-linejoin="round"/>
<path d="M30.9189 16.2571L31.7234 12.3557L30.5119 8.72754L21.2646 15.5598L24.8234 18.5566L29.8493 20.0173L30.9568 18.7262L30.474 18.3775L31.2407 17.6802L30.6539 17.2278L31.4206 16.6435L30.9189 16.2571Z" fill="#763E1A" stroke="#763E1A" stroke-width="0.25" stroke-linecap="round" stroke-linejoin="round"/>
<path d="M7.22852 12.3557L8.0425 16.2571L7.52193 16.6435L8.29806 17.2278L7.71123 17.6802L8.47789 18.3775L7.99518 18.7262L9.10258 20.0173L14.1285 18.5566L17.6873 15.5598L8.44004 8.72754L7.22852 12.3557Z" fill="#763E1A" stroke="#763E1A" stroke-width="0.25" stroke-linecap="round" stroke-linejoin="round"/>
<path d="M29.8498 20.0174L24.8239 18.5566L26.3383 20.8372L24.0762 25.2382L27.0671 25.2004H31.5346L29.8498 20.0174Z" fill="#F5841F" stroke="#F5841F" stroke-width="0.25" stroke-linecap="round" stroke-linejoin="round"/>
<path d="M14.1289 18.5566L9.10304 20.0174L7.42773 25.2004H11.8857L14.8767 25.2382L12.6145 20.8372L14.1289 18.5566Z" fill="#F5841F" stroke="#F5841F" stroke-width="0.25" stroke-linecap="round" stroke-linejoin="round"/>
<path d="M20.943 21.082L21.2648 15.5596L22.7224 11.6299H16.2295L17.6871 15.5596L18.0089 21.082L18.1319 22.8159L18.1414 27.1038H20.8105L20.82 22.8159L20.943 21.082Z" fill="#F5841F" stroke="#F5841F" stroke-width="0.25" stroke-linecap="round" stroke-linejoin="round"/>
<defs>
<linearGradient id="paint0_linear_632_2127" x1="20" y1="0" x2="20" y2="40" gradientUnits="userSpaceOnUse">
<stop stop-color="white"/>
<stop offset="1" stop-color="#F1994A"/>
</linearGradient>
</defs>
</svg>
