<svg width="33" height="31" viewBox="0 0 33 31" fill="none" xmlns="http://www.w3.org/2000/svg">
<path d="M32.6001 15.49C32.6001 24.04 28.3001 30.49 22.6001 30.49C20.3901 30.49 18.2901 29.47 16.5901 27.6C14.8901 29.47 12.8001 30.49 10.6001 30.49C4.9001 30.49 0.600098 24.04 0.600098 15.49C0.600098 6.93999 4.9001 0.48999 10.6001 0.48999C12.8001 0.48999 14.8901 1.5 16.5901 3.37C18.2901 1.5 20.3901 0.48999 22.6001 0.48999C28.3001 0.48999 32.6001 6.93999 32.6001 15.49Z" fill="white"/>
<path d="M22.5999 2.48999C20.5899 2.48999 18.7799 3.64999 17.3899 5.56999C17.0099 6.09999 16.1899 6.09999 15.8099 5.56999C14.4199 3.64999 12.6199 2.48999 10.6099 2.48999C6.11986 2.48999 2.60986 8.19999 2.60986 15.49C2.60986 22.78 6.11986 28.49 10.6099 28.49C12.6199 28.49 14.4199 27.33 15.8099 25.4C16.1899 24.87 17.0099 24.87 17.3899 25.4C18.7799 27.33 20.5899 28.49 22.6099 28.49C27.0999 28.49 30.6099 22.78 30.6099 15.49C30.6099 8.19999 27.0999 2.48999 22.6099 2.48999H22.5999ZM10.5999 26.49C8.96986 26.49 7.45986 25.22 6.36986 23.2C6.75986 23.39 7.16986 23.49 7.60986 23.49C9.48986 23.49 11.0599 21.55 11.4899 18.94C11.5999 18.25 11.0299 17.63 10.3399 17.75C9.23986 17.94 7.77986 18.07 7.60986 17.48C7.38986 16.75 9.20986 15.87 10.3599 15.39C10.8799 15.17 11.1299 14.57 10.8899 14.06C10.1699 12.5 8.96986 11.48 7.60986 11.48C6.47986 11.48 5.45986 12.19 4.72986 13.32C5.29986 8.34999 7.75986 4.48 10.6099 4.48C12.3499 4.48 13.9299 5.92999 15.0399 8.17999C15.3599 8.81999 15.4399 9.56999 15.2599 10.26C14.8399 11.85 14.6099 13.61 14.6099 15.48C14.6099 17.35 14.8399 19.11 15.2599 20.7C15.4399 21.39 15.3499 22.14 15.0399 22.78C13.9299 25.03 12.3499 26.47 10.6099 26.47L10.5999 26.49ZM22.5999 26.49C20.9699 26.49 19.4599 25.22 18.3699 23.2C18.7599 23.39 19.1699 23.49 19.6099 23.49C21.4899 23.49 23.0599 21.55 23.4899 18.94C23.5999 18.25 23.0299 17.63 22.3399 17.75C21.2399 17.94 19.7799 18.07 19.6099 17.48C19.3899 16.76 21.2099 15.87 22.3599 15.39C22.8799 15.17 23.1299 14.57 22.8899 14.06C22.1699 12.5 20.9699 11.48 19.6099 11.48C18.4799 11.48 17.4599 12.19 16.7299 13.32C17.2999 8.34999 19.7599 4.48 22.6099 4.48C25.8599 4.48 28.6099 9.52 28.6099 15.48C28.6099 21.44 25.8599 26.48 22.6099 26.48L22.5999 26.49Z" fill="black"/>
</svg>
