<svg width="16" height="18" viewBox="0 0 16 18" fill="none" xmlns="http://www.w3.org/2000/svg">
<path d="M2 16H5V10H11V16H14V7L8 2.5L2 7V16ZM2 18C1.45 18 0.975 17.8083 0.575 17.425C0.191667 17.025 1.19209e-07 16.55 1.19209e-07 16V7C1.19209e-07 6.68333 0.0666668 6.38333 0.2 6.1C0.35 5.81667 0.55 5.58333 0.8 5.4L6.8 0.899999C6.98333 0.766666 7.175 0.666666 7.375 0.599999C7.575 0.533333 7.78333 0.5 8 0.5C8.21667 0.5 8.425 0.533333 8.625 0.599999C8.825 0.666666 9.01667 0.766666 9.2 0.899999L15.2 5.4C15.45 5.58333 15.6417 5.81667 15.775 6.1C15.925 6.38333 16 6.68333 16 7V16C16 16.55 15.8 17.025 15.4 17.425C15.0167 17.8083 14.55 18 14 18H9V12H7V18H2Z" fill="black" fill-opacity="0.6"/>
</svg>
