<svg width="16" height="16" viewBox="0 0 16 16" fill="none" xmlns="http://www.w3.org/2000/svg">
<g clip-path="url(#clip0_985_3254)">
<rect width="16" height="16" rx="8" fill="url(#paint0_radial_985_3254)"/>
<rect width="24" height="24" fill="url(#paint1_radial_985_3254)"/>
<path d="M7.99984 3.62784C9.42384 3.62784 9.59273 3.63317 10.1554 3.65895C11.6007 3.72473 12.2758 4.4105 12.3416 5.84517C12.3674 6.40739 12.3723 6.57628 12.3723 8.00028C12.3723 9.42473 12.3669 9.59317 12.3416 10.1554C12.2754 11.5887 11.6021 12.2758 10.1554 12.3416C9.59273 12.3674 9.42473 12.3727 7.99984 12.3727C6.57584 12.3727 6.40695 12.3674 5.84473 12.3416C4.39584 12.2754 3.72428 11.5865 3.6585 10.1549C3.63273 9.59273 3.62739 9.42428 3.62739 7.99984C3.62739 6.57584 3.63317 6.40739 3.6585 5.84473C3.72473 4.4105 4.39806 3.72428 5.84473 3.6585C6.40739 3.63317 6.57584 3.62784 7.99984 3.62784ZM7.99984 2.6665C6.55139 2.6665 6.37006 2.67273 5.80117 2.6985C3.86428 2.78739 2.78784 3.86206 2.69895 5.80073C2.67273 6.37006 2.6665 6.55139 2.6665 7.99984C2.6665 9.44828 2.67273 9.63006 2.6985 10.1989C2.78739 12.1358 3.86206 13.2123 5.80073 13.3012C6.37006 13.3269 6.55139 13.3332 7.99984 13.3332C9.44828 13.3332 9.63006 13.3269 10.1989 13.3012C12.1341 13.2123 13.2132 12.1376 13.3007 10.1989C13.3269 9.63006 13.3332 9.44828 13.3332 7.99984C13.3332 6.55139 13.3269 6.37006 13.3012 5.80117C13.2141 3.86606 12.1381 2.78784 10.1994 2.69895C9.63006 2.67273 9.44828 2.6665 7.99984 2.6665V2.6665ZM7.99984 5.26117C6.48739 5.26117 5.26117 6.48739 5.26117 7.99984C5.26117 9.51228 6.48739 10.7389 7.99984 10.7389C9.51228 10.7389 10.7385 9.51273 10.7385 7.99984C10.7385 6.48739 9.51228 5.26117 7.99984 5.26117ZM7.99984 9.77762C7.01806 9.77762 6.22206 8.98206 6.22206 7.99984C6.22206 7.01806 7.01806 6.22206 7.99984 6.22206C8.98162 6.22206 9.77762 7.01806 9.77762 7.99984C9.77762 8.98206 8.98162 9.77762 7.99984 9.77762ZM10.8469 4.51317C10.4932 4.51317 10.2065 4.79984 10.2065 5.15317C10.2065 5.5065 10.4932 5.79317 10.8469 5.79317C11.2003 5.79317 11.4865 5.5065 11.4865 5.15317C11.4865 4.79984 11.2003 4.51317 10.8469 4.51317Z" fill="white"/>
</g>
<defs>
<radialGradient id="paint0_radial_985_3254" cx="0" cy="0" r="1" gradientUnits="userSpaceOnUse" gradientTransform="translate(4.25002 17.2323) rotate(-90) scale(15.8572 14.7484)">
<stop stop-color="#FFDD55"/>
<stop offset="0.1" stop-color="#FFDD55"/>
<stop offset="0.5" stop-color="#FF543E"/>
<stop offset="1" stop-color="#C837AB"/>
</radialGradient>
<radialGradient id="paint1_radial_985_3254" cx="0" cy="0" r="1" gradientUnits="userSpaceOnUse" gradientTransform="translate(-4.02013 1.72892) rotate(78.6806) scale(10.6323 43.827)">
<stop stop-color="#3771C8"/>
<stop offset="0.128" stop-color="#3771C8"/>
<stop offset="1" stop-color="#6600FF" stop-opacity="0"/>
</radialGradient>
<clipPath id="clip0_985_3254">
<rect width="16" height="16" rx="8" fill="white"/>
</clipPath>
</defs>
</svg>
