<svg width="128" height="37" viewBox="0 0 128 37" fill="none" xmlns="http://www.w3.org/2000/svg">
<g filter="url(#filter0_d_281_905)">
<path d="M5.88696 28.8452C7.23071 28.8452 8.16821 28.0483 8.16821 26.4702V15.2046H9.98071C10.9338 15.2046 11.6526 14.5952 11.6526 13.5171C11.6526 12.4546 10.9338 11.8452 9.98071 11.8452H8.05884V10.7827C8.05884 9.54834 8.62134 8.98584 10.0276 8.93896C10.3713 8.92334 10.6526 8.87646 10.9026 8.81396C11.512 8.62646 11.8245 8.25146 11.8245 7.61084C11.8245 6.53271 10.8088 5.76709 8.38696 5.76709C5.23071 5.79834 3.60571 7.26709 3.60571 10.5796V11.8452H2.73071C1.77759 11.8452 1.05884 12.4546 1.05884 13.5171C1.05884 14.5952 1.77759 15.2046 2.73071 15.2046H3.60571V26.4702C3.60571 28.0483 4.52759 28.8452 5.88696 28.8452ZM16.0745 28.8452C17.4651 28.8452 18.3557 27.9858 18.3557 26.4702V19.0327C18.3557 17.0483 19.0901 15.8765 21.1682 15.8452C22.0588 15.8296 22.7151 15.6265 23.1526 15.2515C23.5901 14.8765 23.8088 14.3296 23.8088 13.6108C23.8088 12.8296 23.5901 12.2671 23.1526 11.9233C22.8245 11.6421 22.3401 11.5015 21.7307 11.5015C20.0588 11.5015 18.6838 12.7358 18.2463 14.814H18.1526V13.7202C18.1526 12.2671 17.2776 11.4233 15.9963 11.4233C14.6838 11.4233 13.7932 12.2671 13.7932 13.7202V26.4702C13.7932 27.9858 14.6995 28.8452 16.0745 28.8452ZM32.5901 28.8765C35.8245 28.8765 38.4182 27.6577 39.5276 25.5952C39.7307 25.2202 39.8401 24.8452 39.8401 24.4858C39.8401 23.439 39.0432 22.814 38.0588 22.814C37.4651 22.814 37.0588 22.9858 36.5745 23.4858C35.3401 24.939 34.2463 25.5015 32.5745 25.5015C30.262 25.5015 28.762 23.8765 28.762 21.3921V21.189H38.3245C39.5901 21.189 40.3088 20.4702 40.3088 19.2046C40.3088 14.6577 37.1213 11.4077 32.3713 11.4077C27.4182 11.4077 24.2776 14.8296 24.2776 20.2202C24.2776 25.6421 27.3557 28.8765 32.5901 28.8765ZM28.8088 18.3921C28.9651 16.2515 30.4182 14.7827 32.4182 14.7827C34.4182 14.7827 35.8245 16.2046 35.9182 18.3921H28.8088ZM44.9495 28.8452C46.2932 28.8452 47.2307 28.0327 47.2307 26.4702V18.9077C47.2307 16.7358 48.5276 15.2358 50.5745 15.2358C52.6213 15.2358 53.6526 16.4858 53.6526 18.6733V26.4702C53.6526 28.0327 54.5901 28.8452 55.9338 28.8452C57.262 28.8452 58.2151 28.0327 58.2151 26.4702V17.7202C58.2151 13.7983 56.1213 11.4546 52.4026 11.4546C49.8245 11.4546 48.137 12.5952 47.2463 14.6733H47.1526V13.7358C47.1526 12.2983 46.2463 11.4233 44.8713 11.4233C43.4963 11.4233 42.6682 12.2983 42.6682 13.7202V26.4702C42.6682 28.0327 43.6213 28.8452 44.9495 28.8452ZM63.4963 28.8452C64.8401 28.8452 65.7776 28.0327 65.7776 26.4702V8.01709C65.7776 6.45459 64.8401 5.62646 63.4963 5.62646C62.1682 5.62646 61.2151 6.45459 61.2151 8.01709V26.4702C61.2151 28.0327 62.1682 28.8452 63.4963 28.8452ZM71.6995 34.7202C75.3713 34.7202 77.3088 33.1265 78.8713 28.7983L84.012 14.8296C84.1682 14.3921 84.262 13.8608 84.262 13.4858C84.262 12.2827 83.3557 11.4233 82.0432 11.4233C80.8713 11.4233 80.2151 11.9702 79.8401 13.2358L76.1995 24.8608H76.1213L72.4807 13.2671C72.1057 11.939 71.4807 11.4233 70.2776 11.4233C68.9338 11.4233 67.9182 12.314 67.9182 13.5483C67.9182 13.9233 68.012 14.4233 68.1838 14.8921L73.5276 28.9858L73.2932 29.5796C72.7463 30.7515 71.887 31.0952 71.0901 31.0952C70.7776 31.0952 70.6057 31.0796 70.2932 31.0796C69.262 31.0796 68.6213 31.6577 68.6213 32.5796C68.6213 33.9546 69.6995 34.7202 71.6995 34.7202Z" fill="white"/>
<path d="M8.16821 15.2046V13.2046H6.16821V15.2046H8.16821ZM8.05884 11.8452H6.05884V13.8452H8.05884V11.8452ZM10.0276 8.93896L10.0942 10.9379L10.1063 10.9375L10.1184 10.9369L10.0276 8.93896ZM10.9026 8.81396L11.3877 10.7542L11.4396 10.7413L11.4908 10.7255L10.9026 8.81396ZM8.38696 5.76709V3.76709H8.37706L8.36716 3.76719L8.38696 5.76709ZM3.60571 11.8452V13.8452H5.60571V11.8452H3.60571ZM3.60571 15.2046H5.60571V13.2046H3.60571V15.2046ZM5.88696 30.8452C6.9492 30.8452 8.0725 30.5243 8.9353 29.6741C9.80591 28.8161 10.1682 27.6592 10.1682 26.4702H6.16821C6.16821 26.6685 6.13869 26.7758 6.12323 26.8179C6.10967 26.8548 6.10584 26.8465 6.12769 26.825C6.1858 26.7677 6.16848 26.8452 5.88696 26.8452V30.8452ZM10.1682 26.4702V15.2046H6.16821V26.4702H10.1682ZM8.16821 17.2046H9.98071V13.2046H8.16821V17.2046ZM9.98071 17.2046C10.8822 17.2046 11.8271 16.9112 12.5597 16.2073C13.3062 15.4902 13.6526 14.519 13.6526 13.5171H9.65259C9.65259 13.5637 9.64515 13.5518 9.66471 13.5022C9.68526 13.4501 9.72514 13.3837 9.78842 13.3229C9.92335 13.1933 10.0324 13.2046 9.98071 13.2046V17.2046ZM13.6526 13.5171C13.6526 12.5148 13.3007 11.5476 12.5548 10.8358C11.8238 10.1382 10.8818 9.84521 9.98071 9.84521V13.8452C10.0327 13.8452 9.92671 13.8569 9.79335 13.7296C9.73043 13.6696 9.68933 13.6028 9.66738 13.5477C9.64634 13.4949 9.65259 13.4779 9.65259 13.5171H13.6526ZM9.98071 9.84521H8.05884V13.8452H9.98071V9.84521ZM10.0588 11.8452V10.7827H6.05884V11.8452H10.0588ZM10.0588 10.7827C10.0588 10.7032 10.0634 10.6505 10.0676 10.6199C10.0717 10.5896 10.0745 10.5873 10.0685 10.6056C10.0621 10.625 10.0468 10.6645 10.0159 10.7148C9.98442 10.7662 9.94327 10.8181 9.89384 10.8651C9.84482 10.9117 9.79863 10.943 9.76437 10.9622C9.73137 10.9807 9.71525 10.9847 9.72559 10.9815C9.73652 10.978 9.77014 10.9687 9.83313 10.9593C9.89607 10.95 9.98166 10.9416 10.0942 10.9379L9.96096 6.94008C9.06397 6.96997 7.97729 7.16804 7.1379 7.96598C6.25931 8.80118 6.05884 9.89692 6.05884 10.7827H10.0588ZM10.1184 10.9369C10.6014 10.9149 11.0147 10.8475 11.3877 10.7542L10.4175 6.87368C10.2905 6.90544 10.1413 6.93173 9.93677 6.94103L10.1184 10.9369ZM11.4908 10.7255C12.0536 10.5524 12.6874 10.2281 13.1674 9.61452C13.6589 8.98608 13.8245 8.2653 13.8245 7.61084H9.82446C9.82446 7.59701 9.83374 7.38404 10.0167 7.15013C10.1881 6.93106 10.361 6.88808 10.3144 6.90241L11.4908 10.7255ZM13.8245 7.61084C13.8245 6.31091 13.149 5.21766 12.025 4.55909C11.0265 3.974 9.75444 3.76709 8.38696 3.76709V7.76709C9.44136 7.76709 9.88802 7.94299 10.0028 8.01025C10.0376 8.03066 9.97553 8.002 9.90964 7.89138C9.84105 7.77622 9.82446 7.66629 9.82446 7.61084H13.8245ZM8.36716 3.76719C6.51924 3.78548 4.72734 4.22564 3.41253 5.51479C2.08654 6.81491 1.60571 8.62348 1.60571 10.5796H5.60571C5.60571 9.2232 5.93738 8.64114 6.21296 8.37095C6.49971 8.08979 7.09843 7.77995 8.40676 7.76699L8.36716 3.76719ZM1.60571 10.5796V11.8452H5.60571V10.5796H1.60571ZM3.60571 9.84521H2.73071V13.8452H3.60571V9.84521ZM2.73071 9.84521C1.82958 9.84521 0.887648 10.1382 0.156627 10.8358C-0.589264 11.5476 -0.941162 12.5148 -0.941162 13.5171H3.05884C3.05884 13.4779 3.06508 13.4949 3.04405 13.5477C3.0221 13.6028 2.98099 13.6696 2.91808 13.7296C2.78471 13.8569 2.67872 13.8452 2.73071 13.8452V9.84521ZM-0.941162 13.5171C-0.941162 14.519 -0.594742 15.4902 0.151701 16.2073C0.884286 16.9112 1.82923 17.2046 2.73071 17.2046V13.2046C2.67907 13.2046 2.78808 13.1933 2.92301 13.3229C2.98629 13.3837 3.02616 13.4501 3.04672 13.5022C3.06628 13.5518 3.05884 13.5637 3.05884 13.5171H-0.941162ZM2.73071 17.2046H3.60571V13.2046H2.73071V17.2046ZM1.60571 15.2046V26.4702H5.60571V15.2046H1.60571ZM1.60571 26.4702C1.60571 27.6498 1.95862 28.8084 2.82931 29.6706C3.69405 30.5269 4.82185 30.8452 5.88696 30.8452V26.8452C5.74014 26.8452 5.66031 26.8235 5.63107 26.813C5.60672 26.8043 5.62034 26.8051 5.64384 26.8284C5.66796 26.8523 5.66464 26.8623 5.65099 26.8247C5.63534 26.7816 5.60571 26.6722 5.60571 26.4702H1.60571ZM21.1682 15.8452L21.1983 17.845L21.2033 17.8449L21.1682 15.8452ZM23.1526 11.9233L21.851 13.4419L21.8834 13.4696L21.9169 13.496L23.1526 11.9233ZM18.2463 14.814V16.814H19.8691L20.2034 15.226L18.2463 14.814ZM18.1526 14.814H16.1526V16.814H18.1526V14.814ZM16.0745 30.8452C17.1856 30.8452 18.3147 30.493 19.1645 29.6264C20.0112 28.763 20.3557 27.6188 20.3557 26.4702H16.3557C16.3557 26.655 16.3285 26.7602 16.312 26.8062C16.2971 26.8478 16.2904 26.8444 16.3086 26.8257C16.3272 26.8068 16.3384 26.806 16.3177 26.8137C16.2926 26.8231 16.2175 26.8452 16.0745 26.8452V30.8452ZM20.3557 26.4702V19.0327H16.3557V26.4702H20.3557ZM20.3557 19.0327C20.3557 18.2245 20.517 17.9897 20.534 17.9688C20.5369 17.9652 20.5382 17.9641 20.5413 17.9618C20.5448 17.9593 20.5609 17.948 20.5985 17.9329C20.6776 17.901 20.8585 17.8501 21.1983 17.845L21.1381 13.8454C19.7255 13.8667 18.3663 14.2952 17.4313 15.4443C16.5616 16.5132 16.3557 17.8566 16.3557 19.0327H20.3557ZM21.2033 17.8449C22.3417 17.8249 23.5275 17.5643 24.4542 16.77L21.851 13.733C21.9027 13.6886 21.7759 13.8342 21.1331 13.8455L21.2033 17.8449ZM24.4542 16.77C25.4414 15.9238 25.8088 14.7569 25.8088 13.6108H21.8088C21.8088 13.7702 21.7844 13.8259 21.7878 13.8173C21.7897 13.8125 21.7965 13.7976 21.8104 13.7781C21.8243 13.7585 21.8393 13.743 21.851 13.733L24.4542 16.77ZM25.8088 13.6108C25.8088 12.4776 25.4822 11.2103 24.3882 10.3507L21.9169 13.496C21.8795 13.4666 21.8461 13.4315 21.8198 13.3952C21.7941 13.3597 21.7831 13.334 21.7808 13.3279C21.7788 13.3229 21.7861 13.3401 21.7938 13.3873C21.8015 13.4348 21.8088 13.5078 21.8088 13.6108H25.8088ZM24.4542 10.4048C23.6315 9.69965 22.6087 9.50146 21.7307 9.50146V13.5015C21.8867 13.5015 21.9637 13.52 21.9811 13.5252C21.9947 13.5292 21.9348 13.5137 21.851 13.4419L24.4542 10.4048ZM21.7307 9.50146C18.8816 9.50146 16.8695 11.6455 16.2892 14.4019L20.2034 15.226C20.4981 13.8262 21.2361 13.5015 21.7307 13.5015V9.50146ZM18.2463 12.814H18.1526V16.814H18.2463V12.814ZM20.1526 14.814V13.7202H16.1526V14.814H20.1526ZM20.1526 13.7202C20.1526 12.5907 19.8055 11.4787 18.994 10.6379C18.1777 9.79219 17.086 9.42334 15.9963 9.42334V13.4233C16.0974 13.4233 16.1436 13.4398 16.1499 13.4423C16.153 13.4435 16.1356 13.4362 16.1159 13.4158C16.0966 13.3958 16.1014 13.3905 16.1141 13.4258C16.128 13.4643 16.1526 13.5566 16.1526 13.7202H20.1526ZM15.9963 9.42334C14.9052 9.42334 13.8056 9.78292 12.9778 10.6233C12.1505 11.4631 11.7932 12.5807 11.7932 13.7202H15.7932C15.7932 13.5603 15.8177 13.4721 15.8305 13.4372C15.8421 13.4057 15.8457 13.4118 15.8274 13.4304C15.809 13.449 15.7961 13.4523 15.8085 13.4476C15.8241 13.4416 15.8819 13.4233 15.9963 13.4233V9.42334ZM11.7932 13.7202V26.4702H15.7932V13.7202H11.7932ZM11.7932 26.4702C11.7932 27.6283 12.1471 28.7709 12.9937 29.6299C13.8415 30.4902 14.9662 30.8452 16.0745 30.8452V26.8452C15.9379 26.8452 15.865 26.8239 15.8395 26.8143C15.8179 26.8062 15.8266 26.8059 15.8427 26.8222C15.8587 26.8385 15.8515 26.8402 15.8366 26.7992C15.8203 26.7543 15.7932 26.6512 15.7932 26.4702H11.7932ZM39.5276 25.5952L37.769 24.6426L37.7662 24.6478L39.5276 25.5952ZM36.5745 23.4858L35.138 22.0942L35.0925 22.1412L35.0502 22.191L36.5745 23.4858ZM28.762 21.189V19.189H26.762V21.189H28.762ZM28.8088 18.3921L26.8141 18.2465L26.6575 20.3921H28.8088V18.3921ZM35.9182 18.3921V20.3921H38.0058L37.9164 18.3065L35.9182 18.3921ZM32.5901 30.8765C36.2333 30.8765 39.6993 29.4981 41.289 26.5426L37.7662 24.6478C37.1371 25.8174 35.4156 26.8765 32.5901 26.8765V30.8765ZM41.2862 26.5478C41.608 25.9536 41.8401 25.2523 41.8401 24.4858H37.8401C37.8401 24.4381 37.8534 24.4868 37.769 24.6426L41.2862 26.5478ZM41.8401 24.4858C41.8401 23.4182 41.4165 22.4478 40.649 21.764C39.9075 21.1034 38.9657 20.814 38.0588 20.814V24.814C38.1363 24.814 38.0852 24.8371 37.9882 24.7506C37.9391 24.7069 37.896 24.6489 37.868 24.5849C37.8401 24.5212 37.8401 24.4813 37.8401 24.4858H41.8401ZM38.0588 20.814C37.5584 20.814 37.0157 20.8883 36.4606 21.136C35.9185 21.3779 35.4923 21.7285 35.138 22.0942L38.0109 24.8774C38.0759 24.8103 38.113 24.7806 38.1256 24.7711C38.1356 24.7637 38.1229 24.7744 38.0907 24.7888C38.0756 24.7955 38.0597 24.8015 38.044 24.8063C38.0285 24.8111 38.0163 24.8138 38.0088 24.8152C37.9944 24.8178 38.0062 24.814 38.0588 24.814V20.814ZM35.0502 22.191C34.5337 22.799 34.1525 23.0936 33.8354 23.2541C33.5387 23.4043 33.1717 23.5015 32.5745 23.5015V27.5015C33.6491 27.5015 34.6649 27.3174 35.6417 26.823C36.598 26.339 37.3808 25.6258 38.0987 24.7807L35.0502 22.191ZM32.5745 23.5015C31.9084 23.5015 31.5106 23.2809 31.2682 23.0192C31.0115 22.7422 30.762 22.2346 30.762 21.3921H26.762C26.762 23.034 27.2624 24.5811 28.3339 25.7376C29.4195 26.9095 30.928 27.5015 32.5745 27.5015V23.5015ZM30.762 21.3921V21.189H26.762V21.3921H30.762ZM28.762 23.189H38.3245V19.189H28.762V23.189ZM38.3245 23.189C39.3303 23.189 40.3942 22.8969 41.2055 22.0856C42.0168 21.2743 42.3088 20.2104 42.3088 19.2046H38.3088C38.3088 19.2686 38.3043 19.3138 38.2997 19.3427C38.2952 19.3714 38.291 19.3823 38.2921 19.3791C38.2934 19.3756 38.2996 19.3594 38.3144 19.3355C38.3217 19.3237 38.3306 19.3108 38.3413 19.2973C38.352 19.2837 38.364 19.2702 38.377 19.2572C38.3901 19.2441 38.4036 19.2322 38.4171 19.2215C38.4307 19.2108 38.4436 19.2018 38.4554 19.1945C38.4793 19.1797 38.4954 19.1735 38.499 19.1723C38.5022 19.1711 38.4913 19.1754 38.4626 19.1799C38.4337 19.1844 38.3884 19.189 38.3245 19.189V23.189ZM42.3088 19.2046C42.3088 16.4519 41.3357 13.9744 39.5306 12.1819C37.7248 10.3888 35.2144 9.40771 32.3713 9.40771V13.4077C34.2782 13.4077 35.7366 14.0516 36.7121 15.0203C37.6882 15.9895 38.3088 17.4105 38.3088 19.2046H42.3088ZM32.3713 9.40771C29.4127 9.40771 26.8267 10.4439 24.9939 12.4398C23.1782 14.4171 22.2776 17.1427 22.2776 20.2202H26.2776C26.2776 17.9071 26.9473 16.2265 27.9402 15.1452C28.916 14.0825 30.3769 13.4077 32.3713 13.4077V9.40771ZM22.2776 20.2202C22.2776 23.3023 23.1574 26.0138 25.0267 27.9651C26.9069 29.9279 29.5537 30.8765 32.5901 30.8765V26.8765C30.3921 26.8765 28.8826 26.2079 27.9152 25.198C26.9368 24.1767 26.2776 22.5601 26.2776 20.2202H22.2776ZM30.8035 18.5377C30.8938 17.3017 31.6017 16.7827 32.4182 16.7827V12.7827C29.2347 12.7827 27.0364 15.2012 26.8141 18.2465L30.8035 18.5377ZM32.4182 16.7827C32.9233 16.7827 33.2441 16.9511 33.4512 17.1634C33.668 17.3858 33.8908 17.7944 33.92 18.4777L37.9164 18.3065C37.8519 16.8023 37.3247 15.4062 36.3149 14.3708C35.2954 13.3253 33.9131 12.7827 32.4182 12.7827V16.7827ZM35.9182 16.3921H28.8088V20.3921H35.9182V16.3921ZM47.2463 14.6733V16.6733H48.5651L49.0846 15.4612L47.2463 14.6733ZM47.1526 14.6733H45.1526V16.6733H47.1526V14.6733ZM44.9495 30.8452C46.0219 30.8452 47.1432 30.5145 48.0013 29.6647C48.8658 28.8087 49.2307 27.6562 49.2307 26.4702H45.2307C45.2307 26.6623 45.2019 26.7675 45.1863 26.8098C45.1724 26.8474 45.1675 26.8416 45.1867 26.8226C45.2053 26.8042 45.2145 26.8051 45.1898 26.8141C45.1611 26.8245 45.0857 26.8452 44.9495 26.8452V30.8452ZM49.2307 26.4702V18.9077H45.2307V26.4702H49.2307ZM49.2307 18.9077C49.2307 18.2132 49.4349 17.8033 49.6236 17.593C49.7923 17.405 50.0693 17.2358 50.5745 17.2358V13.2358C49.0328 13.2358 47.6378 13.8167 46.6464 14.9216C45.675 16.0043 45.2307 17.4304 45.2307 18.9077H49.2307ZM50.5745 17.2358C51.1778 17.2358 51.3353 17.4049 51.3772 17.4527C51.4584 17.5453 51.6526 17.861 51.6526 18.6733H55.6526C55.6526 17.2982 55.3312 15.8951 54.385 14.8158C53.3996 13.6918 52.018 13.2358 50.5745 13.2358V17.2358ZM51.6526 18.6733V26.4702H55.6526V18.6733H51.6526ZM51.6526 26.4702C51.6526 27.6562 52.0175 28.8087 52.882 29.6647C53.7401 30.5145 54.8614 30.8452 55.9338 30.8452V26.8452C55.7976 26.8452 55.7222 26.8245 55.6935 26.8141C55.6688 26.8051 55.678 26.8042 55.6966 26.8226C55.7158 26.8416 55.7109 26.8474 55.697 26.8098C55.6814 26.7675 55.6526 26.6623 55.6526 26.4702H51.6526ZM55.9338 30.8452C57.0033 30.8452 58.1203 30.5118 58.9764 29.6682C59.8407 28.8164 60.2151 27.6655 60.2151 26.4702H56.2151C56.2151 26.6586 56.1864 26.7616 56.171 26.803C56.1572 26.84 56.1517 26.8359 56.1687 26.8192C56.2161 26.7724 56.1925 26.8452 55.9338 26.8452V30.8452ZM60.2151 26.4702V17.7202H56.2151V26.4702H60.2151ZM60.2151 17.7202C60.2151 15.4196 59.5989 13.3128 58.1765 11.7639C56.7315 10.1905 54.6954 9.45459 52.4026 9.45459V13.4546C53.8286 13.4546 54.6987 13.8906 55.2303 14.4695C55.7844 15.0729 56.2151 16.099 56.2151 17.7202H60.2151ZM52.4026 9.45459C50.816 9.45459 49.3573 9.80789 48.1172 10.5978C46.8707 11.3918 45.9857 12.5375 45.408 13.8855L49.0846 15.4612C49.3976 14.731 49.8016 14.2674 50.2661 13.9715C50.737 13.6716 51.4111 13.4546 52.4026 13.4546V9.45459ZM47.2463 12.6733H47.1526V16.6733H47.2463V12.6733ZM49.1526 14.6733V13.7358H45.1526V14.6733H49.1526ZM49.1526 13.7358C49.1526 12.5898 48.7824 11.4669 47.9418 10.6263C47.1026 9.78713 45.9885 9.42334 44.8713 9.42334V13.4233C45.0036 13.4233 45.0766 13.4443 45.1049 13.4549C45.1302 13.4644 45.1262 13.4675 45.1134 13.4547C45.1004 13.4418 45.1052 13.4393 45.1166 13.4696C45.1291 13.503 45.1526 13.5861 45.1526 13.7358H49.1526ZM44.8713 9.42334C43.749 9.42334 42.635 9.79163 41.8082 10.6568C40.9923 11.5105 40.6682 12.6258 40.6682 13.7202H44.6682C44.6682 13.557 44.6921 13.464 44.7059 13.4247C44.7184 13.3891 44.7223 13.3971 44.7001 13.4204C44.6768 13.4447 44.6573 13.4519 44.6651 13.4489C44.6771 13.4443 44.739 13.4233 44.8713 13.4233V9.42334ZM40.6682 13.7202V26.4702H44.6682V13.7202H40.6682ZM40.6682 26.4702C40.6682 27.6655 41.0426 28.8164 41.9069 29.6682C42.763 30.5118 43.88 30.8452 44.9495 30.8452V26.8452C44.6908 26.8452 44.6672 26.7724 44.7146 26.8192C44.7316 26.8359 44.7261 26.84 44.7123 26.803C44.6969 26.7616 44.6682 26.6586 44.6682 26.4702H40.6682ZM63.4963 30.8452C64.5687 30.8452 65.6901 30.5145 66.5482 29.6647C67.4126 28.8087 67.7776 27.6562 67.7776 26.4702H63.7776C63.7776 26.6623 63.7487 26.7675 63.7332 26.8098C63.7193 26.8474 63.7143 26.8416 63.7336 26.8226C63.7522 26.8042 63.7614 26.8051 63.7367 26.8141C63.7079 26.8245 63.6325 26.8452 63.4963 26.8452V30.8452ZM67.7776 26.4702V8.01709H63.7776V26.4702H67.7776ZM67.7776 8.01709C67.7776 6.83176 67.4133 5.67982 66.5551 4.82163C65.7008 3.96737 64.5791 3.62646 63.4963 3.62646V7.62646C63.6284 7.62646 63.7009 7.64686 63.728 7.65685C63.7511 7.66538 63.743 7.6664 63.7267 7.65005C63.7099 7.6333 63.717 7.63083 63.7321 7.67207C63.7488 7.71768 63.7776 7.82507 63.7776 8.01709H67.7776ZM63.4963 3.62646C62.4165 3.62646 61.2991 3.9701 60.4469 4.81821C59.5888 5.67212 59.2151 6.82251 59.2151 8.01709H63.2151C63.2151 7.82877 63.2438 7.72353 63.2603 7.67885C63.2754 7.63823 63.283 7.63903 63.2685 7.65347C63.2248 7.69689 63.248 7.62646 63.4963 7.62646V3.62646ZM59.2151 8.01709V26.4702H63.2151V8.01709H59.2151ZM59.2151 26.4702C59.2151 27.6655 59.5895 28.8164 60.4538 29.6682C61.3099 30.5118 62.4269 30.8452 63.4963 30.8452V26.8452C63.2377 26.8452 63.2141 26.7724 63.2615 26.8192C63.2785 26.8359 63.273 26.84 63.2592 26.803C63.2438 26.7616 63.2151 26.6586 63.2151 26.4702H59.2151ZM78.8713 28.7983L76.9944 28.1076L76.9902 28.1192L78.8713 28.7983ZM84.012 14.8296L85.8889 15.5203L85.8922 15.5113L85.8954 15.5023L84.012 14.8296ZM79.8401 13.2358L81.7487 13.8336L81.7533 13.8188L81.7577 13.804L79.8401 13.2358ZM76.1995 24.8608V26.8608H77.6689L78.1081 25.4586L76.1995 24.8608ZM76.1213 24.8608L74.2132 25.46L74.6531 26.8608H76.1213V24.8608ZM72.4807 13.2671L70.556 13.8105L70.5639 13.8385L70.5726 13.8663L72.4807 13.2671ZM68.1838 14.8921L66.3061 15.5806L66.3099 15.5909L66.3137 15.6011L68.1838 14.8921ZM73.5276 28.9858L75.3879 29.7202L75.672 29.0004L75.3977 28.2768L73.5276 28.9858ZM73.2932 29.5796L75.1056 30.4254L75.1312 30.3704L75.1535 30.3139L73.2932 29.5796ZM71.6995 36.7202C73.8385 36.7202 75.7449 36.2487 77.3492 34.925C78.8937 33.6508 79.923 31.7752 80.7525 29.4775L76.9902 28.1192C76.2572 30.1497 75.5364 31.235 74.8036 31.8396C74.1306 32.3949 73.2323 32.7202 71.6995 32.7202V36.7202ZM80.7483 29.4891L85.8889 15.5203L82.135 14.1389L76.9944 28.1076L80.7483 29.4891ZM85.8954 15.5023C86.1196 14.8746 86.262 14.1159 86.262 13.4858H82.262C82.262 13.5232 82.2555 13.6255 82.2283 13.7736C82.2021 13.9168 82.1656 14.053 82.1285 14.1569L85.8954 15.5023ZM86.262 13.4858C86.262 12.3597 85.8266 11.3054 85.0107 10.5425C84.2034 9.78771 83.1397 9.42334 82.0432 9.42334V13.4233C82.1529 13.4233 82.2197 13.4411 82.2518 13.453C82.2832 13.4645 82.2874 13.4723 82.2788 13.4643C82.2696 13.4557 82.2613 13.4434 82.2574 13.4341C82.2536 13.4251 82.262 13.4384 82.262 13.4858H86.262ZM82.0432 9.42334C81.1378 9.42334 80.1835 9.64102 79.3699 10.3123C78.5888 10.9569 78.1708 11.8298 77.9225 12.6677L81.7577 13.804C81.8844 13.3763 81.982 13.3429 81.9157 13.3976C81.9011 13.4096 81.8845 13.4208 81.8678 13.4296C81.8515 13.4383 81.8417 13.4413 81.8425 13.441C81.8459 13.44 81.9029 13.4233 82.0432 13.4233V9.42334ZM77.9315 12.6381L74.2909 24.2631L78.1081 25.4586L81.7487 13.8336L77.9315 12.6381ZM76.1995 22.8608H76.1213V26.8608H76.1995V22.8608ZM78.0295 24.2617L74.3888 12.6679L70.5726 13.8663L74.2132 25.46L78.0295 24.2617ZM74.4055 12.7236C74.1673 11.8801 73.7668 10.9754 72.9709 10.3114C72.1378 9.61643 71.1628 9.42334 70.2776 9.42334V13.4233C70.4405 13.4233 70.5056 13.4414 70.5095 13.4426C70.5097 13.4426 70.4963 13.4386 70.4744 13.4271C70.4521 13.4154 70.4292 13.4002 70.4085 13.3829C70.3642 13.346 70.366 13.33 70.3976 13.3872C70.4329 13.451 70.4908 13.5796 70.556 13.8105L74.4055 12.7236ZM70.2776 9.42334C68.047 9.42334 65.9182 11.0036 65.9182 13.5483H69.9182C69.9182 13.5181 69.9235 13.5124 69.9203 13.5194C69.9177 13.5252 69.9165 13.5233 69.9266 13.5143C69.9453 13.4976 70.046 13.4233 70.2776 13.4233V9.42334ZM65.9182 13.5483C65.9182 14.2015 66.0697 14.936 66.3061 15.5806L70.0616 14.2036C70.0131 14.0713 69.9748 13.9316 69.9496 13.8024C69.9235 13.6685 69.9182 13.5805 69.9182 13.5483H65.9182ZM66.3137 15.6011L71.6575 29.6949L75.3977 28.2768L70.0539 14.183L66.3137 15.6011ZM71.6673 28.2515L71.4329 28.8453L75.1535 30.3139L75.3879 29.7202L71.6673 28.2515ZM71.4808 28.7338C71.3512 29.0117 71.2482 29.0668 71.2474 29.0673C71.2377 29.0732 71.2 29.0952 71.0901 29.0952V33.0952C71.7771 33.0952 72.5675 32.9454 73.3234 32.4864C74.0883 32.022 74.6884 31.3194 75.1056 30.4254L71.4808 28.7338ZM71.0901 29.0952C70.9691 29.0952 70.8763 29.0923 70.7561 29.0884C70.6341 29.0845 70.4847 29.0796 70.2932 29.0796V33.0796C70.4142 33.0796 70.507 33.0825 70.6272 33.0864C70.7492 33.0903 70.8986 33.0952 71.0901 33.0952V29.0952ZM70.2932 29.0796C69.4143 29.0796 68.4765 29.3288 67.7337 29.9963C66.9666 30.6857 66.6213 31.631 66.6213 32.5796H70.6213C70.6213 32.5816 70.6206 32.6365 70.5852 32.7219C70.5485 32.8105 70.4875 32.8995 70.4074 32.9715C70.2427 33.1194 70.1408 33.0796 70.2932 33.0796V29.0796ZM66.6213 32.5796C66.6213 33.867 67.1675 35.0377 68.2643 35.8046C69.2548 36.4972 70.4927 36.7202 71.6995 36.7202V32.7202C70.9063 32.7202 70.605 32.5604 70.5565 32.5265C70.55 32.5219 70.5834 32.5466 70.6106 32.601C70.6355 32.6511 70.6213 32.6586 70.6213 32.5796H66.6213Z" fill="black"/>
</g>
<path d="M124.845 20.8337C123.561 29.9698 117.998 36.2161 111.907 35.3601C109.545 35.0283 107.455 33.623 105.919 31.3695C103.822 33.1124 101.435 33.8884 99.0843 33.5581C92.9936 32.7021 89.3675 25.1642 90.6514 16.0282C91.9354 6.89211 97.4988 0.645749 103.589 1.50174C105.94 1.83212 108.022 3.22522 109.558 5.47869C111.655 3.73581 114.051 2.97194 116.412 3.30383C122.503 4.15982 126.129 11.6977 124.845 20.8337Z" fill="white"/>
<path d="M116.112 5.44094C113.964 5.13909 111.856 6.10679 110.082 7.94966C109.597 8.45892 108.72 8.33578 108.394 7.71238C107.197 5.45203 105.448 3.94221 103.3 3.64036C98.5023 2.96608 93.8942 8.54035 92.7994 16.33C91.7047 24.1197 94.5978 30.7482 99.3955 31.4225C101.543 31.7244 103.641 30.7552 105.416 28.9016C105.902 28.3924 106.778 28.5155 107.104 29.1389C108.3 31.4099 110.06 32.9212 112.218 33.2246C117.016 33.8989 121.624 28.3246 122.719 20.5349C123.813 12.7452 120.92 6.11673 116.123 5.44245L116.112 5.44094ZM99.6852 29.2839C97.9435 29.0391 96.5207 27.4553 95.6593 25.1332C96.0475 25.3948 96.4706 25.5632 96.9408 25.6293C98.9496 25.9116 100.919 24.0744 101.77 21.3501C101.991 20.6293 101.475 19.8812 100.72 19.9058C99.516 19.9436 97.9364 19.8633 97.8433 19.2073C97.7179 18.3942 99.7948 17.7272 101.096 17.387C101.684 17.23 102.042 16.6265 101.862 16.0455C101.327 14.2704 100.198 13.0003 98.7444 12.7961C97.5369 12.6264 96.3404 13.2318 95.3906 14.3297C96.7461 9.1046 99.9559 5.33877 103.001 5.76677C104.86 6.02807 106.331 7.81473 107.179 10.3856C107.425 11.1176 107.398 11.931 107.102 12.6413C106.414 14.2772 105.904 16.1233 105.623 18.1214C105.343 20.1196 105.324 22.0348 105.534 23.7969C105.623 24.5612 105.414 25.3491 104.987 25.9864C103.463 28.2239 101.558 29.5254 99.6989 29.2641L99.6852 29.2839ZM112.508 31.086C110.766 30.8412 109.343 29.2574 108.482 26.9353C108.87 27.1969 109.293 27.3653 109.763 27.4314C111.772 27.7137 113.741 25.8765 114.593 23.1522C114.814 22.4314 114.298 21.6833 113.542 21.7079C112.338 21.7457 110.759 21.6654 110.666 21.0094C110.539 20.207 112.617 19.5293 113.918 19.1891C114.507 19.0321 114.864 18.4286 114.684 17.8476C114.149 16.0725 113.02 14.8024 111.567 14.5981C110.359 14.4284 109.163 15.0339 108.213 16.1318C109.569 10.9067 112.778 7.14086 115.824 7.56885C119.297 8.05692 121.478 13.8554 120.583 20.2239C119.688 26.5924 115.993 31.5649 112.52 31.0768L112.508 31.086Z" fill="black"/>
<defs>
<filter id="filter0_d_281_905" x="1.05884" y="5.62646" width="85.2031" height="31.0938" filterUnits="userSpaceOnUse" color-interpolation-filters="sRGB">
<feFlood flood-opacity="0" result="BackgroundImageFix"/>
<feColorMatrix in="SourceAlpha" type="matrix" values="0 0 0 0 0 0 0 0 0 0 0 0 0 0 0 0 0 0 127 0" result="hardAlpha"/>
<feOffset dx="2" dy="2"/>
<feComposite in2="hardAlpha" operator="out"/>
<feColorMatrix type="matrix" values="0 0 0 0 0 0 0 0 0 0 0 0 0 0 0 0 0 0 1 0"/>
<feBlend mode="normal" in2="BackgroundImageFix" result="effect1_dropShadow_281_905"/>
<feBlend mode="normal" in="SourceGraphic" in2="effect1_dropShadow_281_905" result="shape"/>
</filter>
</defs>
</svg>
