<svg width="129" height="40" viewBox="0 0 129 40" fill="none" xmlns="http://www.w3.org/2000/svg">
<path d="M126.688 21.8337C125.404 30.9698 119.841 37.2161 113.75 36.3601C111.389 36.0283 109.298 34.623 107.762 32.3695C105.665 34.1124 103.279 34.8884 100.928 34.5581C94.8371 33.7021 91.211 26.1642 92.4949 17.0282C93.7789 7.89211 99.3423 1.64575 105.433 2.50174C107.784 2.83212 109.865 4.22522 111.401 6.47869C113.498 4.73581 115.894 3.97194 118.256 4.30383C124.346 5.15982 127.972 12.6977 126.688 21.8337Z" fill="white"/>
<path d="M117.955 6.44094C115.808 6.13909 113.699 7.10679 111.926 8.94966C111.44 9.45892 110.564 9.33578 110.237 8.71238C109.041 6.45203 107.291 4.94221 105.144 4.64036C100.346 3.96608 95.7377 9.54035 94.643 17.33C93.5482 25.1197 96.4413 31.7482 101.239 32.4225C103.387 32.7244 105.484 31.7552 107.26 29.9016C107.745 29.3924 108.621 29.5155 108.948 30.1389C110.143 32.4099 111.903 33.9212 114.062 34.2246C118.859 34.8989 123.467 29.3246 124.562 21.5349C125.657 13.7452 122.764 7.11673 117.966 6.44245L117.955 6.44094ZM101.529 30.2839C99.787 30.0391 98.3642 28.4553 97.5028 26.1332C97.891 26.3948 98.3141 26.5632 98.7843 26.6293C100.793 26.9116 102.762 25.0744 103.614 22.3501C103.835 21.6293 103.319 20.8812 102.563 20.9058C101.359 20.9436 99.7799 20.8633 99.6868 20.2073C99.5614 19.3942 101.638 18.7272 102.939 18.387C103.528 18.23 103.885 17.6265 103.705 17.0455C103.17 15.2704 102.041 14.0003 100.588 13.7961C99.3804 13.6264 98.1839 14.2318 97.2341 15.3297C98.5896 10.1046 101.799 6.33877 104.845 6.76677C106.704 7.02807 108.175 8.81473 109.023 11.3856C109.269 12.1176 109.241 12.931 108.945 13.6413C108.258 15.2772 107.748 17.1233 107.467 19.1214C107.186 21.1196 107.168 23.0348 107.378 24.7969C107.466 25.5612 107.258 26.3491 106.83 26.9864C105.306 29.2239 103.402 30.5254 101.542 30.2641L101.529 30.2839ZM114.351 32.086C112.61 31.8412 111.187 30.2574 110.325 27.9353C110.714 28.1969 111.137 28.3653 111.607 28.4314C113.616 28.7137 115.585 26.8765 116.436 24.1522C116.657 23.4314 116.141 22.6833 115.386 22.7079C114.182 22.7457 112.602 22.6654 112.509 22.0094C112.382 21.207 114.461 20.5293 115.762 20.1891C116.35 20.0321 116.708 19.4286 116.528 18.8476C115.993 17.0725 114.864 15.8024 113.41 15.5981C112.203 15.4284 111.006 16.0339 110.057 17.1318C111.412 11.9067 114.622 8.14086 117.667 8.56885C121.14 9.05692 123.322 14.8554 122.427 21.2239C121.532 27.5924 117.836 32.5649 114.363 32.0768L114.351 32.086Z" fill="black"/>
<path d="M9.73047 30.8452C11.0742 30.8452 12.0117 30.0483 12.0117 28.4702V17.2046H13.8242C14.7773 17.2046 15.4961 16.5952 15.4961 15.5171C15.4961 14.4546 14.7773 13.8452 13.8242 13.8452H11.9023V12.7827C11.9023 11.5483 12.4648 10.9858 13.8711 10.939C14.2148 10.9233 14.4961 10.8765 14.7461 10.814C15.3555 10.6265 15.668 10.2515 15.668 9.61084C15.668 8.53271 14.6523 7.76709 12.2305 7.76709C9.07422 7.79834 7.44922 9.26709 7.44922 12.5796V13.8452H6.57422C5.62109 13.8452 4.90234 14.4546 4.90234 15.5171C4.90234 16.5952 5.62109 17.2046 6.57422 17.2046H7.44922V28.4702C7.44922 30.0483 8.37109 30.8452 9.73047 30.8452Z" fill="black"/>
<path d="M19.918 30.8452C21.3086 30.8452 22.1992 29.9858 22.1992 28.4702V21.0327C22.1992 19.0483 22.9336 17.8765 25.0117 17.8452C25.9023 17.8296 26.5586 17.6265 26.9961 17.2515C27.4336 16.8765 27.6523 16.3296 27.6523 15.6108C27.6523 14.8296 27.4336 14.2671 26.9961 13.9233C26.668 13.6421 26.1836 13.5015 25.5742 13.5015C23.9023 13.5015 22.5273 14.7358 22.0898 16.814H21.9961V15.7202C21.9961 14.2671 21.1211 13.4233 19.8398 13.4233C18.5273 13.4233 17.6367 14.2671 17.6367 15.7202V28.4702C17.6367 29.9858 18.543 30.8452 19.918 30.8452Z" fill="black"/>
<path d="M36.4336 30.8765C39.668 30.8765 42.2617 29.6577 43.3711 27.5952C43.5742 27.2202 43.6836 26.8452 43.6836 26.4858C43.6836 25.439 42.8867 24.814 41.9023 24.814C41.3086 24.814 40.9023 24.9858 40.418 25.4858C39.1836 26.939 38.0898 27.5015 36.418 27.5015C34.1055 27.5015 32.6055 25.8765 32.6055 23.3921V23.189H42.168C43.4336 23.189 44.1523 22.4702 44.1523 21.2046C44.1523 16.6577 40.9648 13.4077 36.2148 13.4077C31.2617 13.4077 28.1211 16.8296 28.1211 22.2202C28.1211 27.6421 31.1992 30.8765 36.4336 30.8765ZM32.6523 20.3921C32.8086 18.2515 34.2617 16.7827 36.2617 16.7827C38.2617 16.7827 39.668 18.2046 39.7617 20.3921H32.6523Z" fill="black"/>
<path d="M48.793 30.8452C50.1367 30.8452 51.0742 30.0327 51.0742 28.4702V20.9077C51.0742 18.7358 52.3711 17.2358 54.418 17.2358C56.4648 17.2358 57.4961 18.4858 57.4961 20.6733V28.4702C57.4961 30.0327 58.4336 30.8452 59.7773 30.8452C61.1055 30.8452 62.0586 30.0327 62.0586 28.4702V19.7202C62.0586 15.7983 59.9648 13.4546 56.2461 13.4546C53.668 13.4546 51.9805 14.5952 51.0898 16.6733H50.9961V15.7358C50.9961 14.2983 50.0898 13.4233 48.7148 13.4233C47.3398 13.4233 46.5117 14.2983 46.5117 15.7202V28.4702C46.5117 30.0327 47.4648 30.8452 48.793 30.8452Z" fill="black"/>
<path d="M67.3398 30.8452C68.6836 30.8452 69.6211 30.0327 69.6211 28.4702V10.0171C69.6211 8.45459 68.6836 7.62646 67.3398 7.62646C66.0117 7.62646 65.0586 8.45459 65.0586 10.0171V28.4702C65.0586 30.0327 66.0117 30.8452 67.3398 30.8452Z" fill="black"/>
<path d="M75.543 36.7202C79.2148 36.7202 81.1523 35.1265 82.7148 30.7983L87.8555 16.8296C88.0117 16.3921 88.1055 15.8608 88.1055 15.4858C88.1055 14.2827 87.1992 13.4233 85.8867 13.4233C84.7148 13.4233 84.0586 13.9702 83.6836 15.2358L80.043 26.8608H79.9648L76.3242 15.2671C75.9492 13.939 75.3242 13.4233 74.1211 13.4233C72.7773 13.4233 71.7617 14.314 71.7617 15.5483C71.7617 15.9233 71.8555 16.4233 72.0273 16.8921L77.3711 30.9858L77.1367 31.5796C76.5898 32.7515 75.7305 33.0952 74.9336 33.0952C74.6211 33.0952 74.4492 33.0796 74.1367 33.0796C73.1055 33.0796 72.4648 33.6577 72.4648 34.5796C72.4648 35.9546 73.543 36.7202 75.543 36.7202Z" fill="black"/>
<path fill-rule="evenodd" clip-rule="evenodd" d="M13.8711 10.939C12.8888 10.9717 12.3182 11.256 12.0634 11.8452C11.9535 12.0995 11.9023 12.4106 11.9023 12.7827V13.8452H13.8242C14.7773 13.8452 15.4961 14.4546 15.4961 15.5171C15.4961 16.5952 14.7773 17.2046 13.8242 17.2046H12.0117V28.4702C12.0117 30.0483 11.0742 30.8452 9.73047 30.8452C8.37109 30.8452 7.44922 30.0483 7.44922 28.4702V17.2046H6.57422C5.62109 17.2046 4.90234 16.5952 4.90234 15.5171C4.90234 14.4546 5.62109 13.8452 6.57422 13.8452H7.44922V12.5796C7.44922 9.26709 9.07422 7.79834 12.2305 7.76709C14.6523 7.76709 15.668 8.53271 15.668 9.61084C15.668 10.2515 15.3555 10.6265 14.7461 10.814C14.4961 10.8765 14.2148 10.9233 13.8711 10.939ZM5.46387 12.0003C5.5533 10.2685 6.06201 8.68552 7.25604 7.51479C8.57085 6.22564 10.3627 5.78548 12.2107 5.76719L12.2206 5.76709H12.2305C13.5979 5.76709 14.87 5.974 15.8686 6.55909C16.9925 7.21766 17.668 8.31091 17.668 9.61084C17.668 10.2653 17.5024 10.9861 17.0109 11.6145C16.7021 12.0093 16.3296 12.2843 15.9533 12.4763C16.1083 12.5816 16.2572 12.7012 16.3983 12.8358C16.4415 12.877 16.4834 12.9191 16.524 12.9621C16.6154 12.8449 16.7144 12.7318 16.8213 12.6233C17.6491 11.7829 18.7487 11.4233 19.8398 11.4233C20.8316 11.4233 21.825 11.7289 22.611 12.4214C23.4416 11.8402 24.4418 11.5015 25.5742 11.5015C26.4404 11.5015 27.4475 11.6944 28.2644 12.3767C28.8033 12.8102 29.1518 13.3441 29.3648 13.9109C31.1515 12.2611 33.5297 11.4077 36.2148 11.4077C39.058 11.4077 41.5683 12.3888 43.3741 14.1819C43.8012 14.6061 44.1818 15.0686 44.5139 15.5641C44.5436 14.5203 44.8746 13.47 45.6518 12.6568C46.4785 11.7916 47.5925 11.4233 48.7148 11.4233C49.8321 11.4233 50.9461 11.7871 51.7853 12.6263C51.8027 12.6437 51.8198 12.6611 51.8367 12.6787C51.8776 12.6514 51.9189 12.6244 51.9607 12.5978C53.2008 11.8079 54.6595 11.4546 56.2461 11.4546C58.5389 11.4546 60.575 12.1905 62.02 13.7639C62.4324 14.2131 62.7771 14.7091 63.0586 15.2432V10.0171C63.0586 8.82251 63.4323 7.67212 64.2904 6.81821C65.1426 5.9701 66.26 5.62646 67.3398 5.62646C68.4226 5.62646 69.5443 5.96737 70.3986 6.82163C71.2568 7.67982 71.6211 8.83176 71.6211 10.0171V12.1437C72.3514 11.6766 73.2281 11.4233 74.1211 11.4233C75.0063 11.4233 75.9813 11.6164 76.8144 12.3114C77.6009 12.9676 78.0013 13.8589 78.2405 14.6938L80.0014 20.3015L81.7707 14.6518C82.0196 13.8187 82.4372 12.9528 83.2134 12.3123C84.027 11.641 84.9813 11.4233 85.8867 11.4233C86.9832 11.4233 88.0469 11.7877 88.8542 12.5425C89.6701 13.3054 90.1055 14.3597 90.1055 15.4858C90.1055 16.1159 89.9631 16.8746 89.739 17.5023L89.7357 17.5113L84.596 31.4775C84.5952 31.4796 84.5944 31.4818 84.5937 31.484C83.7646 33.7787 82.7358 35.652 81.1927 36.925C79.5884 38.2487 77.6821 38.7202 75.543 38.7202C74.3362 38.7202 73.0983 38.4972 72.1078 37.8046C71.011 37.0377 70.4648 35.867 70.4648 34.5796C70.4648 33.631 70.8101 32.6857 71.5772 31.9963C72.32 31.3288 73.2579 31.0796 74.1367 31.0796C74.3254 31.0796 74.4732 31.0844 74.5942 31.0883L74.5996 31.0884C74.7198 31.0923 74.8126 31.0952 74.9336 31.0952C75.0435 31.0952 75.0812 31.0732 75.091 31.0673C75.0932 31.066 75.1415 31.0389 75.2127 30.9345L71.6211 21.4619V28.4702C71.6211 29.6562 71.2562 30.8087 70.3917 31.6647C69.5336 32.5145 68.4122 32.8452 67.3398 32.8452C66.2704 32.8452 65.1534 32.5118 64.2973 31.6681C63.9914 31.3667 63.7469 31.0277 63.5586 30.6626C63.3703 31.0277 63.1258 31.3667 62.8199 31.6681C61.9638 32.5118 60.8468 32.8452 59.7773 32.8452C58.7049 32.8452 57.5836 32.5145 56.7255 31.6647C55.861 30.8087 55.4961 29.6562 55.4961 28.4702V20.6733C55.4961 19.861 55.3019 19.5453 55.2207 19.4527C55.1788 19.4049 55.0213 19.2358 54.418 19.2358C53.9128 19.2358 53.6358 19.405 53.4671 19.593C53.2784 19.8033 53.0742 20.2132 53.0742 20.9077V28.4702C53.0742 29.6562 52.7093 30.8087 51.8448 31.6647C50.9867 32.5145 49.8654 32.8452 48.793 32.8452C47.7235 32.8452 46.6065 32.5118 45.7504 31.6681C45.1125 31.0395 44.7415 30.2479 44.5909 29.3958C42.8358 31.7642 39.7062 32.8765 36.4336 32.8765C33.3972 32.8765 30.7505 31.9279 28.8702 29.9651C27.0009 28.0138 26.1211 25.3022 26.1211 22.2202C26.1211 21.3504 26.193 20.5088 26.3372 19.7042C25.9113 19.7957 25.4757 19.8374 25.0468 19.8449L25.0418 19.845C24.702 19.8501 24.5211 19.901 24.442 19.9329C24.4045 19.948 24.3883 19.9593 24.3848 19.9618C24.3817 19.9641 24.3804 19.9652 24.3775 19.9688C24.3605 19.9897 24.1992 20.2245 24.1992 21.0327V28.4702C24.1992 29.6188 23.8547 30.763 23.008 31.6264C22.1582 32.493 21.0291 32.8452 19.918 32.8452C18.8097 32.8452 17.6851 32.4902 16.8372 31.6299C15.9906 30.7709 15.6367 29.6283 15.6367 28.4702V18.7642C15.1239 19.0387 14.563 19.1753 14.0117 19.2003V28.4702C14.0117 29.6592 13.6494 30.8161 12.7788 31.6741C11.916 32.5243 10.7927 32.8452 9.73047 32.8452C8.66535 32.8452 7.53755 32.5269 6.67281 31.6706C5.80213 30.8084 5.44922 29.6498 5.44922 28.4702V19.0451C4.92598 18.8909 4.42418 18.6195 3.99521 18.2073C3.24876 17.4902 2.90234 16.519 2.90234 15.5171C2.90234 14.5148 3.25424 13.5476 4.00013 12.8358C4.43178 12.4239 4.93697 12.1531 5.46387 12.0003ZM27.088 17.167C27.3626 16.8963 27.537 16.5469 27.6111 16.1187C27.6386 15.9602 27.6523 15.7909 27.6523 15.6108C27.6523 14.8296 27.4336 14.2671 26.9961 13.9233C26.668 13.6421 26.1836 13.5015 25.5742 13.5015C24.8951 13.5015 24.2649 13.7052 23.7267 14.0864C23.1925 14.4647 22.7489 15.0178 22.4378 15.7202C22.3099 16.009 22.2044 16.323 22.1242 16.6604C22.1122 16.7111 22.1007 16.7622 22.0898 16.814H21.9961V15.7202C21.9961 14.8776 21.7019 14.2399 21.2048 13.8527C20.8447 13.5723 20.3781 13.4233 19.8398 13.4233C18.5273 13.4233 17.6367 14.2671 17.6367 15.7202V28.4702C17.6367 29.9858 18.543 30.8452 19.918 30.8452C21.3086 30.8452 22.1992 29.9858 22.1992 28.4702V21.0327C22.1992 20.1039 22.3601 19.3531 22.7444 18.814C23.0099 18.4413 23.3822 18.1698 23.8818 18.0105C24.2037 17.9078 24.5785 17.8517 25.0117 17.8452C25.9023 17.8296 26.5586 17.6265 26.9961 17.2515C27.0279 17.2242 27.0585 17.1961 27.088 17.167ZM28.8125 18.2331C28.3609 19.3914 28.1211 20.7306 28.1211 22.2202C28.1211 27.6421 31.1992 30.8765 36.4336 30.8765C39.668 30.8765 42.2617 29.6577 43.3711 27.5952C43.5742 27.2202 43.6836 26.8452 43.6836 26.4858C43.6836 25.8726 43.4101 25.4041 42.9857 25.1212C42.7521 24.9655 42.4727 24.866 42.168 24.8296C42.0813 24.8192 41.9926 24.814 41.9023 24.814C41.4463 24.814 41.1009 24.9154 40.7457 25.189C40.6384 25.2716 40.5303 25.3699 40.418 25.4858C39.1836 26.939 38.0898 27.5015 36.418 27.5015C34.725 27.5015 33.4674 26.6305 32.9152 25.189C32.7131 24.6615 32.6055 24.0576 32.6055 23.3921V23.189H42.168C42.5437 23.189 42.8713 23.1256 43.1461 23.0034C43.797 22.714 44.1523 22.0945 44.1523 21.2046C44.1523 16.6577 40.9648 13.4077 36.2148 13.4077C33.2024 13.4077 30.8604 14.6734 29.4876 16.878C29.227 17.2966 29.0012 17.7491 28.8125 18.2331ZM37.7981 25.189H35.3021C35.5486 25.3697 35.9031 25.5015 36.418 25.5015C37.0152 25.5015 37.3822 25.4043 37.6789 25.2541C37.7176 25.2345 37.7573 25.2129 37.7981 25.189ZM77.1367 31.5796C76.5898 32.7515 75.7305 33.0952 74.9336 33.0952C74.7773 33.0952 74.6562 33.0913 74.5352 33.0874C74.4141 33.0835 74.293 33.0796 74.1367 33.0796C73.1055 33.0796 72.4648 33.6577 72.4648 34.5796C72.4648 35.9546 73.543 36.7202 75.543 36.7202C79.2148 36.7202 81.1523 35.1265 82.7148 30.7983L87.8555 16.8296C88.0117 16.3921 88.1055 15.8608 88.1055 15.4858C88.1055 14.2827 87.1992 13.4233 85.8867 13.4233C84.7148 13.4233 84.0586 13.9702 83.6836 15.2358L80.043 26.8608H79.9648L76.3242 15.2671C75.9492 13.939 75.3242 13.4233 74.1211 13.4233C72.7773 13.4233 71.7617 14.314 71.7617 15.5483C71.7617 15.9233 71.8555 16.4233 72.0273 16.8921L77.3711 30.9858L77.1367 31.5796ZM52.8232 14.4281C52.3388 14.7758 51.9276 15.2135 51.5873 15.7358C51.4956 15.8765 51.4092 16.0232 51.3278 16.176C51.243 16.3353 51.1637 16.5011 51.0898 16.6733H50.9961V15.7358C50.9961 15.0101 50.7651 14.4277 50.3594 14.0289C49.9615 13.6378 49.3956 13.4233 48.7148 13.4233C47.3398 13.4233 46.5117 14.2983 46.5117 15.7202V28.4702C46.5117 30.0327 47.4648 30.8452 48.793 30.8452C50.1367 30.8452 51.0742 30.0327 51.0742 28.4702V20.9077C51.0742 20.0372 51.2826 19.2747 51.664 18.6733C51.9664 18.1967 52.3775 17.8215 52.8798 17.574C53.3249 17.3547 53.8417 17.2358 54.418 17.2358C56.4648 17.2358 57.4961 18.4858 57.4961 20.6733V28.4702C57.4961 30.0327 58.4336 30.8452 59.7773 30.8452C61.1055 30.8452 62.0586 30.0327 62.0586 28.4702V19.7202C62.0586 15.7983 59.9648 13.4546 56.2461 13.4546C54.8483 13.4546 53.7124 13.7899 52.8232 14.4281ZM32.6523 20.3921H39.7617C39.7287 19.6206 39.5323 18.9443 39.2043 18.3921C38.6022 17.3785 37.5564 16.7827 36.2617 16.7827C34.9759 16.7827 33.9162 17.3898 33.2818 18.3921C32.9293 18.9489 32.7081 19.6276 32.6523 20.3921ZM69.6211 28.4702C69.6211 30.0327 68.6836 30.8452 67.3398 30.8452C66.0117 30.8452 65.0586 30.0327 65.0586 28.4702V10.0171C65.0586 8.45459 66.0117 7.62646 67.3398 7.62646C68.6836 7.62646 69.6211 8.45459 69.6211 10.0171V28.4702Z" fill="black"/>
<path d="M7.73047 28.8452C9.07422 28.8452 10.0117 28.0483 10.0117 26.4702V15.2046H11.8242C12.7773 15.2046 13.4961 14.5952 13.4961 13.5171C13.4961 12.4546 12.7773 11.8452 11.8242 11.8452H9.90234V10.7827C9.90234 9.54834 10.4648 8.98584 11.8711 8.93896C12.2148 8.92334 12.4961 8.87646 12.7461 8.81396C13.3555 8.62646 13.668 8.25146 13.668 7.61084C13.668 6.53271 12.6523 5.76709 10.2305 5.76709C7.07422 5.79834 5.44922 7.26709 5.44922 10.5796V11.8452H4.57422C3.62109 11.8452 2.90234 12.4546 2.90234 13.5171C2.90234 14.5952 3.62109 15.2046 4.57422 15.2046H5.44922V26.4702C5.44922 28.0483 6.37109 28.8452 7.73047 28.8452Z" fill="white"/>
<path d="M17.918 28.8452C19.3086 28.8452 20.1992 27.9858 20.1992 26.4702V19.0327C20.1992 17.0483 20.9336 15.8765 23.0117 15.8452C23.9023 15.8296 24.5586 15.6265 24.9961 15.2515C25.4336 14.8765 25.6523 14.3296 25.6523 13.6108C25.6523 12.8296 25.4336 12.2671 24.9961 11.9233C24.668 11.6421 24.1836 11.5015 23.5742 11.5015C21.9023 11.5015 20.5273 12.7358 20.0898 14.814H19.9961V13.7202C19.9961 12.2671 19.1211 11.4233 17.8398 11.4233C16.5273 11.4233 15.6367 12.2671 15.6367 13.7202V26.4702C15.6367 27.9858 16.543 28.8452 17.918 28.8452Z" fill="white"/>
<path d="M34.4336 28.8765C37.668 28.8765 40.2617 27.6577 41.3711 25.5952C41.5742 25.2202 41.6836 24.8452 41.6836 24.4858C41.6836 23.439 40.8867 22.814 39.9023 22.814C39.3086 22.814 38.9023 22.9858 38.418 23.4858C37.1836 24.939 36.0898 25.5015 34.418 25.5015C32.1055 25.5015 30.6055 23.8765 30.6055 21.3921V21.189H40.168C41.4336 21.189 42.1523 20.4702 42.1523 19.2046C42.1523 14.6577 38.9648 11.4077 34.2148 11.4077C29.2617 11.4077 26.1211 14.8296 26.1211 20.2202C26.1211 25.6421 29.1992 28.8765 34.4336 28.8765ZM30.6523 18.3921C30.8086 16.2515 32.2617 14.7827 34.2617 14.7827C36.2617 14.7827 37.668 16.2046 37.7617 18.3921H30.6523Z" fill="white"/>
<path d="M46.793 28.8452C48.1367 28.8452 49.0742 28.0327 49.0742 26.4702V18.9077C49.0742 16.7358 50.3711 15.2358 52.418 15.2358C54.4648 15.2358 55.4961 16.4858 55.4961 18.6733V26.4702C55.4961 28.0327 56.4336 28.8452 57.7773 28.8452C59.1055 28.8452 60.0586 28.0327 60.0586 26.4702V17.7202C60.0586 13.7983 57.9648 11.4546 54.2461 11.4546C51.668 11.4546 49.9805 12.5952 49.0898 14.6733H48.9961V13.7358C48.9961 12.2983 48.0898 11.4233 46.7148 11.4233C45.3398 11.4233 44.5117 12.2983 44.5117 13.7202V26.4702C44.5117 28.0327 45.4648 28.8452 46.793 28.8452Z" fill="white"/>
<path d="M65.3398 28.8452C66.6836 28.8452 67.6211 28.0327 67.6211 26.4702V8.01709C67.6211 6.45459 66.6836 5.62646 65.3398 5.62646C64.0117 5.62646 63.0586 6.45459 63.0586 8.01709V26.4702C63.0586 28.0327 64.0117 28.8452 65.3398 28.8452Z" fill="white"/>
<path d="M73.543 34.7202C77.2148 34.7202 79.1523 33.1265 80.7148 28.7983L85.8555 14.8296C86.0117 14.3921 86.1055 13.8608 86.1055 13.4858C86.1055 12.2827 85.1992 11.4233 83.8867 11.4233C82.7148 11.4233 82.0586 11.9702 81.6836 13.2358L78.043 24.8608H77.9648L74.3242 13.2671C73.9492 11.939 73.3242 11.4233 72.1211 11.4233C70.7773 11.4233 69.7617 12.314 69.7617 13.5483C69.7617 13.9233 69.8555 14.4233 70.0273 14.8921L75.3711 28.9858L75.1367 29.5796C74.5898 30.7515 73.7305 31.0952 72.9336 31.0952C72.6211 31.0952 72.4492 31.0796 72.1367 31.0796C71.1055 31.0796 70.4648 31.6577 70.4648 32.5796C70.4648 33.9546 71.543 34.7202 73.543 34.7202Z" fill="white"/>
<path fill-rule="evenodd" clip-rule="evenodd" d="M11.8711 8.93896C10.8888 8.97171 10.3182 9.25604 10.0634 9.84521C9.95347 10.0995 9.90234 10.4106 9.90234 10.7827V11.8452H11.8242C12.7773 11.8452 13.4961 12.4546 13.4961 13.5171C13.4961 14.5952 12.7773 15.2046 11.8242 15.2046H10.0117V26.4702C10.0117 28.0483 9.07422 28.8452 7.73047 28.8452C6.37109 28.8452 5.44922 28.0483 5.44922 26.4702V15.2046H4.57422C3.62109 15.2046 2.90234 14.5952 2.90234 13.5171C2.90234 12.4546 3.62109 11.8452 4.57422 11.8452H5.44922V10.5796C5.44922 7.26709 7.07422 5.79834 10.2305 5.76709C12.6523 5.76709 13.668 6.53271 13.668 7.61084C13.668 8.25146 13.3555 8.62646 12.7461 8.81396C12.4961 8.87646 12.2148 8.92334 11.8711 8.93896ZM3.46387 10.0003C3.5533 8.26853 4.06201 6.68552 5.25604 5.51479C6.57085 4.22564 8.36275 3.78548 10.2107 3.76719L10.2206 3.76709H10.2305C11.5979 3.76709 12.87 3.974 13.8686 4.55909C14.9925 5.21766 15.668 6.31091 15.668 7.61084C15.668 8.2653 15.5024 8.98608 15.0109 9.61452C14.7021 10.0093 14.3296 10.2843 13.9533 10.4763C14.1083 10.5816 14.2572 10.7012 14.3983 10.8358C14.4415 10.877 14.4834 10.9191 14.524 10.9621C14.6154 10.8449 14.7144 10.7318 14.8213 10.6233C15.6491 9.78292 16.7487 9.42334 17.8398 9.42334C18.8316 9.42334 19.825 9.72888 20.611 10.4214C21.4416 9.84017 22.4418 9.50146 23.5742 9.50146C24.4404 9.50146 25.4475 9.69436 26.2644 10.3767C26.8033 10.8102 27.1518 11.3441 27.3648 11.9109C29.1515 10.2611 31.5297 9.40771 34.2148 9.40771C37.058 9.40771 39.5683 10.3888 41.3741 12.1819C41.8012 12.6061 42.1818 13.0686 42.5139 13.5641C42.5436 12.5203 42.8746 11.47 43.6518 10.6568C44.4785 9.79163 45.5925 9.42334 46.7148 9.42334C47.8321 9.42334 48.9461 9.78713 49.7853 10.6263C49.8027 10.6437 49.8198 10.6611 49.8367 10.6787C49.8776 10.6514 49.9189 10.6244 49.9607 10.5978C51.2008 9.80789 52.6595 9.45459 54.2461 9.45459C56.5389 9.45459 58.575 10.1905 60.02 11.7639C60.4324 12.2131 60.7771 12.7091 61.0586 13.2432V8.01709C61.0586 6.82251 61.4323 5.67212 62.2904 4.81821C63.1426 3.9701 64.26 3.62646 65.3398 3.62646C66.4226 3.62646 67.5443 3.96737 68.3986 4.82163C69.2568 5.67982 69.6211 6.83176 69.6211 8.01709V10.1437C70.3514 9.67661 71.2281 9.42334 72.1211 9.42334C73.0063 9.42334 73.9813 9.61643 74.8144 10.3114C75.6009 10.9676 76.0013 11.8589 76.2405 12.6938L78.0014 18.3015L79.7707 12.6518C80.0196 11.8187 80.4372 10.9528 81.2134 10.3123C82.027 9.64102 82.9813 9.42334 83.8867 9.42334C84.9832 9.42334 86.0469 9.78771 86.8542 10.5425C87.6701 11.3054 88.1055 12.3597 88.1055 13.4858C88.1055 14.1159 87.9631 14.8746 87.739 15.5023L87.7357 15.5113L82.596 29.4775C82.5952 29.4796 82.5944 29.4818 82.5937 29.484C81.7646 31.7787 80.7358 33.652 79.1927 34.925C77.5884 36.2487 75.6821 36.7202 73.543 36.7202C72.3362 36.7202 71.0983 36.4972 70.1078 35.8046C69.011 35.0377 68.4648 33.867 68.4648 32.5796C68.4648 31.631 68.8101 30.6857 69.5772 29.9963C70.32 29.3288 71.2579 29.0796 72.1367 29.0796C72.3254 29.0796 72.4732 29.0844 72.5942 29.0883L72.5996 29.0884C72.7198 29.0923 72.8126 29.0952 72.9336 29.0952C73.0435 29.0952 73.0812 29.0732 73.091 29.0673C73.0932 29.066 73.1415 29.0389 73.2127 28.9345L69.6211 19.4619V26.4702C69.6211 27.6562 69.2562 28.8087 68.3917 29.6647C67.5336 30.5145 66.4122 30.8452 65.3398 30.8452C64.2704 30.8452 63.1534 30.5118 62.2973 29.6681C61.9914 29.3667 61.7469 29.0277 61.5586 28.6626C61.3703 29.0277 61.1258 29.3667 60.8199 29.6681C59.9638 30.5118 58.8468 30.8452 57.7773 30.8452C56.7049 30.8452 55.5836 30.5145 54.7255 29.6647C53.861 28.8087 53.4961 27.6562 53.4961 26.4702V18.6733C53.4961 17.861 53.3019 17.5453 53.2207 17.4527C53.1788 17.4049 53.0213 17.2358 52.418 17.2358C51.9128 17.2358 51.6358 17.405 51.4671 17.593C51.2784 17.8033 51.0742 18.2132 51.0742 18.9077V26.4702C51.0742 27.6562 50.7093 28.8087 49.8448 29.6647C48.9867 30.5145 47.8654 30.8452 46.793 30.8452C45.7235 30.8452 44.6065 30.5118 43.7504 29.6681C43.1125 29.0395 42.7415 28.2479 42.5909 27.3958C40.8358 29.7642 37.7062 30.8765 34.4336 30.8765C31.3972 30.8765 28.7505 29.9279 26.8702 27.9651C25.0009 26.0138 24.1211 23.3022 24.1211 20.2202C24.1211 19.3504 24.193 18.5088 24.3372 17.7042C23.9113 17.7957 23.4757 17.8374 23.0468 17.8449L23.0418 17.845C22.702 17.8501 22.5211 17.901 22.442 17.9329C22.4045 17.948 22.3883 17.9593 22.3848 17.9618C22.3817 17.9641 22.3804 17.9652 22.3775 17.9688C22.3605 17.9897 22.1992 18.2245 22.1992 19.0327V26.4702C22.1992 27.6188 21.8547 28.763 21.008 29.6264C20.1582 30.493 19.0291 30.8452 17.918 30.8452C16.8097 30.8452 15.6851 30.4902 14.8372 29.6299C13.9906 28.7709 13.6367 27.6283 13.6367 26.4702V16.7642C13.1239 17.0387 12.563 17.1753 12.0117 17.2003V26.4702C12.0117 27.6592 11.6494 28.8161 10.7788 29.6741C9.916 30.5243 8.79271 30.8452 7.73047 30.8452C6.66535 30.8452 5.53755 30.5269 4.67281 29.6706C3.80213 28.8084 3.44922 27.6498 3.44922 26.4702V17.0451C2.92598 16.8909 2.42418 16.6195 1.99521 16.2073C1.24876 15.4902 0.902344 14.519 0.902344 13.5171C0.902344 12.5148 1.25424 11.5476 2.00013 10.8358C2.43178 10.4239 2.93697 10.1531 3.46387 10.0003ZM25.088 15.167C25.3626 14.8963 25.537 14.5469 25.6111 14.1187C25.6386 13.9602 25.6523 13.7909 25.6523 13.6108C25.6523 12.8296 25.4336 12.2671 24.9961 11.9233C24.668 11.6421 24.1836 11.5015 23.5742 11.5015C22.8951 11.5015 22.2649 11.7052 21.7267 12.0864C21.1925 12.4647 20.7489 13.0178 20.4378 13.7202C20.3099 14.009 20.2044 14.323 20.1242 14.6604C20.1122 14.7111 20.1007 14.7622 20.0898 14.814H19.9961V13.7202C19.9961 12.8776 19.7019 12.2399 19.2048 11.8527C18.8447 11.5723 18.3781 11.4233 17.8398 11.4233C16.5273 11.4233 15.6367 12.2671 15.6367 13.7202V26.4702C15.6367 27.9858 16.543 28.8452 17.918 28.8452C19.3086 28.8452 20.1992 27.9858 20.1992 26.4702V19.0327C20.1992 18.1039 20.3601 17.3531 20.7444 16.814C21.0099 16.4413 21.3822 16.1698 21.8818 16.0105C22.2037 15.9078 22.5785 15.8517 23.0117 15.8452C23.9023 15.8296 24.5586 15.6265 24.9961 15.2515C25.0279 15.2242 25.0585 15.1961 25.088 15.167ZM26.8125 16.2331C26.3609 17.3914 26.1211 18.7306 26.1211 20.2202C26.1211 25.6421 29.1992 28.8765 34.4336 28.8765C37.668 28.8765 40.2617 27.6577 41.3711 25.5952C41.5742 25.2202 41.6836 24.8452 41.6836 24.4858C41.6836 23.8726 41.4101 23.4041 40.9857 23.1212C40.7521 22.9655 40.4727 22.866 40.168 22.8296C40.0813 22.8192 39.9926 22.814 39.9023 22.814C39.4463 22.814 39.1009 22.9154 38.7457 23.189C38.6384 23.2716 38.5303 23.3699 38.418 23.4858C37.1836 24.939 36.0898 25.5015 34.418 25.5015C32.725 25.5015 31.4674 24.6305 30.9152 23.189C30.7131 22.6615 30.6055 22.0576 30.6055 21.3921V21.189H40.168C40.5437 21.189 40.8713 21.1256 41.1461 21.0034C41.797 20.714 42.1523 20.0945 42.1523 19.2046C42.1523 14.6577 38.9648 11.4077 34.2148 11.4077C31.2024 11.4077 28.8604 12.6734 27.4876 14.878C27.227 15.2966 27.0012 15.7491 26.8125 16.2331ZM35.7981 23.189H33.3021C33.5486 23.3697 33.9031 23.5015 34.418 23.5015C35.0152 23.5015 35.3822 23.4043 35.6789 23.2541C35.7176 23.2345 35.7573 23.2129 35.7981 23.189ZM75.1367 29.5796C74.5898 30.7515 73.7305 31.0952 72.9336 31.0952C72.7773 31.0952 72.6562 31.0913 72.5352 31.0874C72.4141 31.0835 72.293 31.0796 72.1367 31.0796C71.1055 31.0796 70.4648 31.6577 70.4648 32.5796C70.4648 33.9546 71.543 34.7202 73.543 34.7202C77.2148 34.7202 79.1523 33.1265 80.7148 28.7983L85.8555 14.8296C86.0117 14.3921 86.1055 13.8608 86.1055 13.4858C86.1055 12.2827 85.1992 11.4233 83.8867 11.4233C82.7148 11.4233 82.0586 11.9702 81.6836 13.2358L78.043 24.8608H77.9648L74.3242 13.2671C73.9492 11.939 73.3242 11.4233 72.1211 11.4233C70.7773 11.4233 69.7617 12.314 69.7617 13.5483C69.7617 13.9233 69.8555 14.4233 70.0273 14.8921L75.3711 28.9858L75.1367 29.5796ZM50.8232 12.4281C50.3388 12.7758 49.9276 13.2135 49.5873 13.7358C49.4956 13.8765 49.4092 14.0232 49.3278 14.176C49.243 14.3353 49.1637 14.5011 49.0898 14.6733H48.9961V13.7358C48.9961 13.0101 48.7651 12.4277 48.3594 12.0289C47.9615 11.6378 47.3956 11.4233 46.7148 11.4233C45.3398 11.4233 44.5117 12.2983 44.5117 13.7202V26.4702C44.5117 28.0327 45.4648 28.8452 46.793 28.8452C48.1367 28.8452 49.0742 28.0327 49.0742 26.4702V18.9077C49.0742 18.0372 49.2826 17.2747 49.664 16.6733C49.9664 16.1967 50.3775 15.8215 50.8798 15.574C51.3249 15.3547 51.8417 15.2358 52.418 15.2358C54.4648 15.2358 55.4961 16.4858 55.4961 18.6733V26.4702C55.4961 28.0327 56.4336 28.8452 57.7773 28.8452C59.1055 28.8452 60.0586 28.0327 60.0586 26.4702V17.7202C60.0586 13.7983 57.9648 11.4546 54.2461 11.4546C52.8483 11.4546 51.7124 11.7899 50.8232 12.4281ZM30.6523 18.3921H37.7617C37.7287 17.6206 37.5323 16.9443 37.2043 16.3921C36.6022 15.3785 35.5564 14.7827 34.2617 14.7827C32.9759 14.7827 31.9162 15.3898 31.2818 16.3921C30.9293 16.9489 30.7081 17.6276 30.6523 18.3921ZM67.6211 26.4702C67.6211 28.0327 66.6836 28.8452 65.3398 28.8452C64.0117 28.8452 63.0586 28.0327 63.0586 26.4702V8.01709C63.0586 6.45459 64.0117 5.62646 65.3398 5.62646C66.6836 5.62646 67.6211 6.45459 67.6211 8.01709V26.4702Z" fill="black"/>
</svg>
