<svg width="16" height="16" viewBox="0 0 16 16" fill="none" xmlns="http://www.w3.org/2000/svg">
<rect width="16" height="16" rx="8" fill="#777777"/>
<path d="M7.99962 12.4441C7.39221 12.4441 6.81814 12.3273 6.2774 12.0938C5.73666 11.8607 5.26451 11.5421 4.86095 11.1383C4.4571 10.7347 4.13858 10.2626 3.9054 9.72184C3.67192 9.1811 3.55518 8.60703 3.55518 7.99962C3.55518 7.38481 3.67192 6.80895 3.9054 6.27206C4.13858 5.73488 4.4571 5.26451 4.86095 4.86095C5.26451 4.4571 5.73666 4.13844 6.2774 3.90495C6.81814 3.67177 7.39221 3.55518 7.99962 3.55518C8.61444 3.55518 9.19029 3.67177 9.72718 3.90495C10.2644 4.13844 10.7347 4.4571 11.1383 4.86095C11.5421 5.26451 11.8607 5.73488 12.0938 6.27206C12.3273 6.80895 12.4441 7.38481 12.4441 7.99962V8.64406C12.4441 9.0811 12.2941 9.45325 11.9943 9.76051C11.6941 10.0681 11.3255 10.2218 10.8885 10.2218C10.6218 10.2218 10.3737 10.1626 10.1441 10.0441C9.91444 9.92555 9.72555 9.76999 9.5774 9.5774C9.3774 9.7774 9.14229 9.93488 8.87207 10.0498C8.60155 10.1645 8.31073 10.2218 7.99962 10.2218C7.38481 10.2218 6.86081 10.0051 6.42762 9.57162C5.99414 9.13844 5.7774 8.61444 5.7774 7.99962C5.7774 7.38481 5.99414 6.86066 6.42762 6.42718C6.86081 5.99399 7.38481 5.7774 7.99962 5.7774C8.61444 5.7774 9.13858 5.99399 9.57207 6.42718C10.0053 6.86066 10.2218 7.38481 10.2218 7.99962V8.64406C10.2218 8.85888 10.2885 9.02732 10.4218 9.1494C10.5552 9.27177 10.7107 9.33295 10.8885 9.33295C11.0663 9.33295 11.2218 9.27177 11.3552 9.1494C11.4885 9.02732 11.5552 8.85888 11.5552 8.64406V7.99962C11.5552 7.02925 11.2051 6.19399 10.505 5.49384C9.8051 4.79399 8.96999 4.44406 7.99962 4.44406C7.02925 4.44406 6.19399 4.79399 5.49384 5.49384C4.79399 6.19399 4.44406 7.02925 4.44406 7.99962C4.44406 8.96999 4.79399 9.8051 5.49384 10.505C6.19399 11.2051 7.02925 11.5552 7.99962 11.5552H10.2218V12.4441H7.99962ZM7.99962 9.33295C8.36999 9.33295 8.68481 9.20332 8.94407 8.94407C9.20332 8.68481 9.33295 8.36999 9.33295 7.99962C9.33295 7.62925 9.20332 7.31444 8.94407 7.05518C8.68481 6.79592 8.36999 6.66629 7.99962 6.66629C7.62925 6.66629 7.31444 6.79592 7.05518 7.05518C6.79592 7.31444 6.66629 7.62925 6.66629 7.99962C6.66629 8.36999 6.79592 8.68481 7.05518 8.94407C7.31444 9.20332 7.62925 9.33295 7.99962 9.33295Z" fill="white"/>
</svg>
