<svg width="16" height="19" viewBox="0 0 16 19" fill="none" xmlns="http://www.w3.org/2000/svg">
<path fill-rule="evenodd" clip-rule="evenodd" d="M4.88247 0.666504H11.118C11.7888 0.666494 12.3424 0.666485 12.7934 0.703333C13.2618 0.741604 13.6924 0.823741 14.0969 1.02982C14.7241 1.34939 15.234 1.85933 15.5536 2.48654C15.7597 2.89098 15.8418 3.32157 15.8801 3.78998C15.9169 4.24097 15.9169 4.7946 15.9169 5.4654V9.20094C15.9169 9.87174 15.9169 10.4254 15.8801 10.8764C15.8418 11.3448 15.7597 11.7754 15.5536 12.1798C15.234 12.807 14.7241 13.3169 14.0969 13.6365C13.6924 13.8426 13.2618 13.9247 12.7934 13.963C12.3424 13.9999 11.7888 13.9998 11.118 13.9998H10.4904C9.83927 13.9998 9.64952 14.0052 9.48002 14.0459C9.30995 14.0867 9.14738 14.1541 8.99826 14.2454C8.84963 14.3365 8.71167 14.4669 8.25124 14.9273L5.40852 17.7701C5.40341 17.7752 5.39822 17.7804 5.39295 17.7856C5.3181 17.8606 5.2273 17.9514 5.14382 18.0213C5.07501 18.0789 4.85839 18.2603 4.54029 18.2853C4.20787 18.3115 3.88302 18.1769 3.66647 17.9234C3.45924 17.6808 3.43436 17.4 3.42644 17.3106C3.41683 17.2022 3.41683 17.073 3.41688 16.9671C3.41689 16.9597 3.41689 16.9523 3.41689 16.9451V13.9946C3.13244 13.9864 2.88812 13.9657 2.6634 13.9136C1.4246 13.6261 0.457306 12.6588 0.169837 11.42C0.083051 11.046 0.0832533 10.6177 0.083526 10.0405C0.0835415 10.0077 0.0835572 9.97447 0.0835572 9.9407L0.0835568 5.46542C0.0835462 4.79461 0.0835374 4.24098 0.120385 3.78998C0.158656 3.32157 0.240793 2.89098 0.446869 2.48654C0.766447 1.85933 1.27638 1.34939 1.90359 1.02982C2.30803 0.823741 2.73862 0.741604 3.20704 0.703333C3.65803 0.666485 4.21167 0.666494 4.88247 0.666504Z" fill="#248BF2"/>
</svg>
