<svg width="40" height="40" viewBox="0 0 40 40" fill="none" xmlns="http://www.w3.org/2000/svg">
<rect width="40" height="40" rx="20" fill="url(#paint0_linear_584_2508)"/>
<path d="M30.5125 8.72705L20.9434 15.7949L22.7228 11.6296L30.5125 8.72705Z" fill="#E17726" stroke="#E17726" stroke-width="0.25" stroke-linecap="round" stroke-linejoin="round"/>
<path d="M8.43994 8.72705L17.9239 15.8609L16.2296 11.6296L8.43994 8.72705Z" fill="#E27625" stroke="#E27625" stroke-width="0.25" stroke-linecap="round" stroke-linejoin="round"/>
<path d="M27.0671 25.1152L24.521 28.9979L29.9728 30.4963L31.5346 25.2L27.0671 25.1152Z" fill="#E27625" stroke="#E27625" stroke-width="0.25" stroke-linecap="round" stroke-linejoin="round"/>
<path d="M7.42725 25.2L8.9795 30.4963L14.4219 28.9979L11.8853 25.1152L7.42725 25.2Z" fill="#E27625" stroke="#E27625" stroke-width="0.25" stroke-linecap="round" stroke-linejoin="round"/>
<path d="M14.1287 18.5562L12.6143 20.8368L18.0093 21.0818L17.8294 15.2861L14.1287 18.5562Z" fill="#E27625" stroke="#E27625" stroke-width="0.25" stroke-linecap="round" stroke-linejoin="round"/>
<path d="M24.824 18.5562L21.0663 15.2202L20.9434 21.0818L26.3384 20.8368L24.824 18.5562Z" fill="#E27625" stroke="#E27625" stroke-width="0.25" stroke-linecap="round" stroke-linejoin="round"/>
<path d="M14.4219 28.9979L17.6873 27.4241L14.8762 25.2378L14.4219 28.9979Z" fill="#E27625" stroke="#E27625" stroke-width="0.25" stroke-linecap="round" stroke-linejoin="round"/>
<path d="M21.2651 27.4241L24.5211 28.9979L24.0763 25.2378L21.2651 27.4241Z" fill="#E27625" stroke="#E27625" stroke-width="0.25" stroke-linecap="round" stroke-linejoin="round"/>
<path d="M24.5211 28.9976L21.2651 27.4238L21.5302 29.5347L21.5018 30.43L24.5211 28.9976Z" fill="#D5BFB2" stroke="#D5BFB2" stroke-width="0.25" stroke-linecap="round" stroke-linejoin="round"/>
<path d="M14.4219 28.9976L17.4507 30.43L17.4317 29.5347L17.6873 27.4238L14.4219 28.9976Z" fill="#D5BFB2" stroke="#D5BFB2" stroke-width="0.25" stroke-linecap="round" stroke-linejoin="round"/>
<path d="M17.5073 23.8428L14.8003 23.0512L16.7123 22.1748L17.5073 23.8428Z" fill="#233447" stroke="#233447" stroke-width="0.25" stroke-linecap="round" stroke-linejoin="round"/>
<path d="M21.4448 23.8428L22.2399 22.1748L24.1613 23.0512L21.4448 23.8428Z" fill="#233447" stroke="#233447" stroke-width="0.25" stroke-linecap="round" stroke-linejoin="round"/>
<path d="M14.4219 28.9979L14.8951 25.1152L11.8853 25.2001L14.4219 28.9979Z" fill="#CC6228" stroke="#CC6228" stroke-width="0.25" stroke-linecap="round" stroke-linejoin="round"/>
<path d="M24.0571 25.1152L24.5209 28.9979L27.067 25.2001L24.0571 25.1152Z" fill="#CC6228" stroke="#CC6228" stroke-width="0.25" stroke-linecap="round" stroke-linejoin="round"/>
<path d="M26.3384 20.8364L20.9434 21.0814L21.445 23.8426L22.2401 22.1746L24.1615 23.051L26.3384 20.8364Z" fill="#CC6228" stroke="#CC6228" stroke-width="0.25" stroke-linecap="round" stroke-linejoin="round"/>
<path d="M14.8007 23.051L16.7126 22.1746L17.5077 23.8426L18.0093 21.0814L12.6143 20.8364L14.8007 23.051Z" fill="#CC6228" stroke="#CC6228" stroke-width="0.25" stroke-linecap="round" stroke-linejoin="round"/>
<path d="M12.6143 20.8364L14.8764 25.2374L14.8007 23.051L12.6143 20.8364Z" fill="#E27525" stroke="#E27525" stroke-width="0.25" stroke-linecap="round" stroke-linejoin="round"/>
<path d="M24.1613 23.051L24.0762 25.2374L26.3383 20.8364L24.1613 23.051Z" fill="#E27525" stroke="#E27525" stroke-width="0.25" stroke-linecap="round" stroke-linejoin="round"/>
<path d="M18.009 21.0815L17.5073 23.8428L18.1415 27.1034L18.2835 22.8061L18.009 21.0815Z" fill="#E27525" stroke="#E27525" stroke-width="0.25" stroke-linecap="round" stroke-linejoin="round"/>
<path d="M20.9433 21.0815L20.6782 22.7967L20.8107 27.1034L21.4449 23.8428L20.9433 21.0815Z" fill="#E27525" stroke="#E27525" stroke-width="0.25" stroke-linecap="round" stroke-linejoin="round"/>
<path d="M21.4447 23.8428L20.8105 27.1035L21.2649 27.4239L24.076 25.2376L24.1612 23.0513L21.4447 23.8428Z" fill="#F5841F" stroke="#F5841F" stroke-width="0.25" stroke-linecap="round" stroke-linejoin="round"/>
<path d="M14.8003 23.0513L14.8761 25.2376L17.6871 27.4239L18.1414 27.1035L17.5073 23.8428L14.8003 23.0513Z" fill="#F5841F" stroke="#F5841F" stroke-width="0.25" stroke-linecap="round" stroke-linejoin="round"/>
<path d="M21.5017 30.43L21.5301 29.5347L21.284 29.3274H17.6684L17.4317 29.5347L17.4507 30.43L14.4219 28.9976L15.482 29.8645L17.6305 31.3441H21.3124L23.4704 29.8645L24.521 28.9976L21.5017 30.43Z" fill="#C0AC9D" stroke="#C0AC9D" stroke-width="0.25" stroke-linecap="round" stroke-linejoin="round"/>
<path d="M21.265 27.424L20.8107 27.1035H18.1416L17.6872 27.424L17.4316 29.5349L17.6683 29.3275H21.2839L21.53 29.5349L21.265 27.424Z" fill="#161616" stroke="#161616" stroke-width="0.25" stroke-linecap="round" stroke-linejoin="round"/>
<path d="M30.9194 16.2567L31.7239 12.3552L30.5124 8.72705L21.2651 15.5593L24.8239 18.5561L29.8498 20.0168L30.9573 18.7257L30.4745 18.377L31.2412 17.6797L30.6544 17.2273L31.4211 16.6431L30.9194 16.2567Z" fill="#763E1A" stroke="#763E1A" stroke-width="0.25" stroke-linecap="round" stroke-linejoin="round"/>
<path d="M7.22852 12.3552L8.0425 16.2567L7.52193 16.6431L8.29806 17.2273L7.71123 17.6797L8.47789 18.377L7.99518 18.7257L9.10258 20.0168L14.1285 18.5561L17.6873 15.5593L8.44004 8.72705L7.22852 12.3552Z" fill="#763E1A" stroke="#763E1A" stroke-width="0.25" stroke-linecap="round" stroke-linejoin="round"/>
<path d="M29.8498 20.0169L24.8239 18.5562L26.3383 20.8367L24.0762 25.2377L27.0671 25.1999H31.5346L29.8498 20.0169Z" fill="#F5841F" stroke="#F5841F" stroke-width="0.25" stroke-linecap="round" stroke-linejoin="round"/>
<path d="M14.1284 18.5562L9.10255 20.0169L7.42725 25.1999H11.8853L14.8762 25.2377L12.6141 20.8367L14.1284 18.5562Z" fill="#F5841F" stroke="#F5841F" stroke-width="0.25" stroke-linecap="round" stroke-linejoin="round"/>
<path d="M20.943 21.0815L21.2648 15.5591L22.7224 11.6294H16.2295L17.6871 15.5591L18.0089 21.0815L18.1319 22.8154L18.1414 27.1033H20.8105L20.82 22.8154L20.943 21.0815Z" fill="#F5841F" stroke="#F5841F" stroke-width="0.25" stroke-linecap="round" stroke-linejoin="round"/>
<defs>
<linearGradient id="paint0_linear_584_2508" x1="20" y1="0" x2="20" y2="40" gradientUnits="userSpaceOnUse">
<stop stop-color="white"/>
<stop offset="1" stop-color="#F1994A"/>
</linearGradient>
</defs>
</svg>
