<svg width="12" height="18" viewBox="0 0 12 18" fill="none" xmlns="http://www.w3.org/2000/svg">
<path d="M0 14C0 14.5304 0.210714 15.0391 0.585786 15.4142C0.960859 15.7893 1.46957 16 2 16H8V16.5858C8 17.4767 9.07714 17.9229 9.70711 17.2929L11.2929 15.7071C11.6834 15.3166 11.6834 14.6834 11.2929 14.2929L9.70711 12.7071C9.07714 12.0771 8 12.5233 8 13.4142V14H3C2.44772 14 2 13.5523 2 13L2 7.41421C2 7.149 1.89464 6.89464 1.70711 6.70711C1.07714 6.07714 0 6.52331 0 7.41421L0 14ZM4 4V4.58579C4 5.47669 2.92286 5.92286 2.29289 5.29289L0.707106 3.70711C0.316582 3.31658 0.316583 2.68342 0.707107 2.29289L2.29289 0.707106C2.92286 0.0771408 4 0.52331 4 1.41421V2H10C10.5304 2 11.0391 2.21071 11.4142 2.58579C11.7893 2.96086 12 3.46957 12 4L12 10.5858C12 11.4767 10.9229 11.9229 10.2929 11.2929C10.1054 11.1054 10 10.851 10 10.5858V5C10 4.44771 9.55228 4 9 4H4Z" fill="#5BD530"/>
</svg>
