<svg width="22" height="6" viewBox="0 0 22 6" fill="none" xmlns="http://www.w3.org/2000/svg">
<path d="M2.63333 5.3C2.01111 5.3 1.46667 5.07778 1 4.63333C0.555556 4.18889 0.333333 3.64444 0.333333 3C0.333333 2.35556 0.555556 1.81111 1 1.36666C1.46667 0.922221 2.01111 0.699999 2.63333 0.699999C3.27778 0.699999 3.82222 0.922221 4.26667 1.36666C4.73333 1.81111 4.96667 2.35556 4.96667 3C4.96667 3.64444 4.73333 4.18889 4.26667 4.63333C3.82222 5.07778 3.27778 5.3 2.63333 5.3ZM11 5.3C10.3556 5.3 9.81111 5.07778 9.36667 4.63333C8.92222 4.18889 8.7 3.64444 8.7 3C8.7 2.35556 8.92222 1.81111 9.36667 1.36666C9.81111 0.922221 10.3556 0.699999 11 0.699999C11.6444 0.699999 12.1889 0.922221 12.6333 1.36666C13.0778 1.81111 13.3 2.35556 13.3 3C13.3 3.64444 13.0778 4.18889 12.6333 4.63333C12.1889 5.07778 11.6444 5.3 11 5.3ZM19.3667 5.3C18.7222 5.3 18.1667 5.07778 17.7 4.63333C17.2556 4.18889 17.0333 3.64444 17.0333 3C17.0333 2.35556 17.2556 1.81111 17.7 1.36666C18.1667 0.922221 18.7222 0.699999 19.3667 0.699999C19.9889 0.699999 20.5222 0.922221 20.9667 1.36666C21.4333 1.81111 21.6667 2.35556 21.6667 3C21.6667 3.64444 21.4333 4.18889 20.9667 4.63333C20.5222 5.07778 19.9889 5.3 19.3667 5.3Z" fill="black"/>
</svg>
