<svg width="14" height="12" viewBox="0 0 14 12" fill="none" xmlns="http://www.w3.org/2000/svg">
<path d="M1.75 5C1.19772 5 0.75 5.44772 0.75 6C0.75 6.55228 1.19772 7 1.75 7V5ZM12.25 6L12.9571 6.70711C13.3476 6.31658 13.3476 5.68342 12.9571 5.29289L12.25 6ZM8.45711 0.792893C8.06658 0.402369 7.43342 0.402369 7.04289 0.792893C6.65237 1.18342 6.65237 1.81658 7.04289 2.20711L8.45711 0.792893ZM7.04289 9.79289C6.65237 10.1834 6.65237 10.8166 7.04289 11.2071C7.43342 11.5976 8.06658 11.5976 8.45711 11.2071L7.04289 9.79289ZM1.75 7H12.25V5H1.75V7ZM7.04289 2.20711L11.5429 6.70711L12.9571 5.29289L8.45711 0.792893L7.04289 2.20711ZM11.5429 5.29289L7.04289 9.79289L8.45711 11.2071L12.9571 6.70711L11.5429 5.29289Z" fill="#21201F"/>
</svg>
