<svg viewBox="0 0 14 20" fill="none" xmlns="http://www.w3.org/2000/svg">
<path d="M7 20C5.05 20 3.39167 19.325 2.025 17.975C0.675 16.6083 2.38419e-07 14.95 2.38419e-07 13C2.38419e-07 11.4333 0.458333 10.0333 1.375 8.8C2.30833 7.55 3.525 6.70833 5.025 6.275C4.69167 6.19167 4.36667 6.075 4.05 5.925C3.73333 5.75833 3.45 5.55 3.2 5.3C2.65 4.75 2.29167 4.1 2.125 3.35C1.975 2.58333 1.94167 1.80833 2.025 1.025C2.80833 0.941665 3.575 0.983332 4.325 1.15C5.09167 1.3 5.75 1.65 6.3 2.2C6.68333 2.58333 6.95833 3.01667 7.125 3.5C7.30833 3.98333 7.425 4.49167 7.475 5.025C7.69167 4.50833 7.95 4.025 8.25 3.575C8.56667 3.10833 8.91667 2.68333 9.3 2.3C9.48333 2.11667 9.71667 2.025 10 2.025C10.2833 2.025 10.5167 2.11667 10.7 2.3C10.8833 2.48333 10.975 2.71667 10.975 3C10.975 3.28333 10.8833 3.51666 10.7 3.7C10.3333 4.06667 10.0083 4.475 9.725 4.925C9.44167 5.35833 9.23333 5.825 9.1 6.325C10.5667 6.79167 11.75 7.64167 12.65 8.875C13.55 10.0917 14 11.4667 14 13C14 14.95 13.3167 16.6083 11.95 17.975C10.6 19.325 8.95 20 7 20ZM7 18C8.38333 18 9.55833 17.5167 10.525 16.55C11.5083 15.5667 12 14.3833 12 13C12 11.6167 11.5083 10.4417 10.525 9.475C9.55833 8.49167 8.38333 8 7 8C5.61667 8 4.43333 8.49167 3.45 9.475C2.48333 10.4417 2 11.6167 2 13C2 14.3833 2.48333 15.5667 3.45 16.55C4.43333 17.5167 5.61667 18 7 18Z" fill="black" fill-opacity="0.4"/>
</svg>
