<svg viewBox="0 0 18 18" fill="none" xmlns="http://www.w3.org/2000/svg">
<path d="M2 14.85C2.9 13.9667 3.94167 13.275 5.125 12.775C6.325 12.2583 7.61667 12 9 12C10.3833 12 11.6667 12.2583 12.85 12.775C14.05 13.275 15.1 13.9667 16 14.85V2H2V14.85ZM9 10C9.96667 10 10.7917 9.65833 11.475 8.975C12.1583 8.29167 12.5 7.46667 12.5 6.5C12.5 5.53333 12.1583 4.70833 11.475 4.025C10.7917 3.34167 9.96667 3 9 3C8.03333 3 7.20833 3.34167 6.525 4.025C5.84167 4.70833 5.5 5.53333 5.5 6.5C5.5 7.46667 5.84167 8.29167 6.525 8.975C7.20833 9.65833 8.03333 10 9 10ZM2 18C1.45 18 0.975 17.8083 0.575 17.425C0.191667 17.025 0 16.55 0 16V2C0 1.45 0.191667 0.983333 0.575 0.599999C0.975 0.199999 1.45 -1.43051e-06 2 -1.43051e-06H16C16.55 -1.43051e-06 17.0167 0.199999 17.4 0.599999C17.8 0.983333 18 1.45 18 2V16C18 16.55 17.8 17.025 17.4 17.425C17.0167 17.8083 16.55 18 16 18H2ZM4 16H14C14 15.95 14 15.9083 14 15.875C14 15.8417 14 15.8 14 15.75C13.3 15.1667 12.525 14.7333 11.675 14.45C10.825 14.15 9.93333 14 9 14C8.06667 14 7.175 14.15 6.325 14.45C5.475 14.7333 4.7 15.1667 4 15.75C4 15.8 4 15.8417 4 15.875C4 15.9083 4 15.95 4 16ZM9 8C8.58333 8 8.225 7.85833 7.925 7.575C7.64167 7.275 7.5 6.91667 7.5 6.5C7.5 6.08333 7.64167 5.73333 7.925 5.45C8.225 5.15 8.58333 5 9 5C9.41667 5 9.76667 5.15 10.05 5.45C10.35 5.73333 10.5 6.08333 10.5 6.5C10.5 6.91667 10.35 7.275 10.05 7.575C9.76667 7.85833 9.41667 8 9 8Z" fill="black" fill-opacity="0.4"/>
</svg>
