<svg viewBox="0 0 14 14" fill="none" xmlns="http://www.w3.org/2000/svg">
<path d="M7 10.4C7.21111 10.4 7.38889 10.3278 7.53333 10.1833C7.68889 10.0278 7.76667 9.84444 7.76667 9.63333V7.06667C7.76667 6.86667 7.68889 6.69444 7.53333 6.55C7.38889 6.40556 7.21111 6.33333 7 6.33333C6.78889 6.33333 6.60556 6.41111 6.45 6.56667C6.30556 6.71111 6.23333 6.88333 6.23333 7.08333V9.65C6.23333 9.85 6.30556 10.0278 6.45 10.1833C6.60556 10.3278 6.78889 10.4 7 10.4ZM7 5.06667C7.21111 5.06667 7.39445 4.98889 7.55 4.83333C7.70556 4.67778 7.78333 4.49444 7.78333 4.28333C7.78333 4.07222 7.70556 3.88889 7.55 3.73333C7.39445 3.57778 7.21111 3.5 7 3.5C6.78889 3.5 6.60556 3.57778 6.45 3.73333C6.29444 3.88889 6.21667 4.07222 6.21667 4.28333C6.21667 4.49444 6.29444 4.67778 6.45 4.83333C6.60556 4.98889 6.78889 5.06667 7 5.06667ZM7 13.8C6.05556 13.8 5.16667 13.6222 4.33333 13.2667C3.51111 12.9111 2.79444 12.4278 2.18333 11.8167C1.57222 11.2056 1.08889 10.4889 0.733333 9.66667C0.377778 8.83333 0.2 7.94444 0.2 7C0.2 6.05556 0.377778 5.17222 0.733333 4.35C1.08889 3.51667 1.57222 2.79444 2.18333 2.18333C2.79444 1.57222 3.51111 1.08889 4.33333 0.733333C5.16667 0.377777 6.05556 0.199999 7 0.199999C7.94444 0.199999 8.82778 0.377777 9.65 0.733333C10.4833 1.08889 11.2056 1.57222 11.8167 2.18333C12.4278 2.79444 12.9111 3.51667 13.2667 4.35C13.6222 5.17222 13.8 6.05556 13.8 7C13.8 7.94444 13.6222 8.83333 13.2667 9.66667C12.9111 10.4889 12.4278 11.2056 11.8167 11.8167C11.2056 12.4278 10.4833 12.9111 9.65 13.2667C8.82778 13.6222 7.94444 13.8 7 13.8ZM7 12.2167C8.44444 12.2167 9.67222 11.7111 10.6833 10.7C11.7056 9.68889 12.2167 8.45556 12.2167 7C12.2167 5.55556 11.7056 4.32778 10.6833 3.31667C9.67222 2.29444 8.44444 1.78333 7 1.78333C5.55556 1.78333 4.32222 2.28889 3.3 3.3C2.28889 4.31111 1.78333 5.54444 1.78333 7C1.78333 8.44444 2.28889 9.67778 3.3 10.7C4.32222 11.7111 5.55556 12.2167 7 12.2167Z" fill="white"/>
</svg>
