<svg width="65" height="65" viewBox="0 0 65 65" fill="none" xmlns="http://www.w3.org/2000/svg">
<path d="M56.7999 51.7201C56.7999 57.2901 52.2699 61.82 46.7099 61.82C41.6199 61.82 37.3899 58.03 36.7099 53.12C35.1499 52.17 33.7299 50.7901 32.4899 49.0401C29.9199 52.6901 26.5099 54.7001 22.8899 54.7001C14.7999 54.7001 8.68994 45.15 8.68994 32.5C8.68994 19.85 14.7999 10.3 22.8899 10.3C26.5099 10.3 29.9199 12.31 32.4899 15.95C35.0599 12.31 38.4699 10.3 42.0899 10.3C50.1899 10.3 56.2899 19.84 56.2899 32.5C56.2899 36.86 55.5599 40.85 54.2799 44.21C55.7199 47.05 56.7999 49.8201 56.7999 51.7201V51.7201Z" fill="white"/>
<path d="M52.06 44.25C53.47 40.96 54.2999 36.93 54.2999 32.5C54.2999 21.17 48.9399 12.3 42.0999 12.3C39.0199 12.3 36.25 14.1 34.13 17.11C33.33 18.24 31.66 18.24 30.86 17.11C28.74 14.1 25.97 12.3 22.9 12.3C16.06 12.3 10.7 21.17 10.7 32.5C10.7 43.83 16.06 52.7001 22.9 52.7001C25.97 52.7001 28.74 50.9 30.86 47.89C31.66 46.76 33.33 46.76 34.13 47.89C35.41 49.71 36.94 51.0701 38.63 51.8801C38.72 56.2801 42.3 59.82 46.72 59.82C51.14 59.82 54.82 56.2001 54.82 51.7201C54.82 49.9701 53.58 47.1 52.07 44.25H52.06ZM30.44 44.7401C28.57 48.4001 25.89 50.7001 22.9 50.7001C17.28 50.7001 12.7 42.54 12.7 32.5C12.7 22.46 16.85 15.1 22.11 14.37C20.62 15.53 19.46 17.55 18.95 19.99C18.66 21.35 19.81 22.6 21.19 22.39C22.87 22.14 24.8 22.05 25.06 22.9C25.39 23.99 22.86 25.29 21.02 26.08C19.98 26.53 19.48 27.77 20.01 28.78C21.18 31.04 23.01 32.5 25.06 32.5C27.11 32.5 28.95 31.03 30.12 28.75C29.99 29.96 29.91 31.21 29.91 32.5C29.91 35.36 30.26 38.06 30.88 40.51C31.24 41.93 31.11 43.4301 30.45 44.7401H30.44ZM31.9 32.5C31.9 22.94 36.05 15.09 41.31 14.37C39.82 15.53 38.66 17.55 38.15 19.99C37.86 21.35 39.0099 22.6 40.3899 22.39C42.0699 22.14 43.9999 22.05 44.2599 22.9C44.5899 23.99 42.06 25.29 40.22 26.08C39.18 26.53 38.6799 27.77 39.2099 28.78C40.3799 31.04 42.2099 32.5 44.2599 32.5C47.7899 32.5 50.66 28.2 50.66 22.9C50.66 22.79 50.66 22.68 50.65 22.57C51.7 25.43 52.31 28.84 52.31 32.5C52.31 35.97 51.76 39.2101 50.81 41.9701C48.77 38.4401 46.7299 35.4501 46.7299 35.4501C46.7299 35.4501 40.49 44.5501 38.97 49.7901C34.89 47.4201 31.92 40.57 31.92 32.5H31.9ZM46.7099 57.8101C43.3499 57.8101 40.61 55.08 40.61 51.71C40.61 49.49 43.7899 43.6601 46.7099 39.0801C49.6299 43.6701 52.81 49.49 52.81 51.71C52.81 55.07 50.0799 57.8101 46.7099 57.8101Z" fill="black"/>
</svg>
