<svg width="18" height="18" viewBox="0 0 18 18" fill="none" xmlns="http://www.w3.org/2000/svg">
<path d="M15.9 17.3L10.3 11.7C9.8 12.1 9.225 12.4167 8.575 12.65C7.925 12.8833 7.23333 13 6.5 13C4.68333 13 3.14167 12.375 1.875 11.125C0.625 9.85833 0 8.31667 0 6.5C0 4.68333 0.625 3.15 1.875 1.9C3.14167 0.633332 4.68333 -1.43051e-06 6.5 -1.43051e-06C8.31667 -1.43051e-06 9.85 0.633332 11.1 1.9C12.3667 3.15 13 4.68333 13 6.5C13 7.23333 12.8833 7.925 12.65 8.575C12.4167 9.225 12.1 9.8 11.7 10.3L17.325 15.925C17.5083 16.1083 17.6 16.3333 17.6 16.6C17.6 16.8667 17.5 17.1 17.3 17.3C17.1167 17.4833 16.8833 17.575 16.6 17.575C16.3167 17.575 16.0833 17.4833 15.9 17.3ZM6.5 11C7.75 11 8.80833 10.5667 9.675 9.7C10.5583 8.81667 11 7.75 11 6.5C11 5.25 10.5583 4.19167 9.675 3.325C8.80833 2.44167 7.75 2 6.5 2C5.25 2 4.18333 2.44167 3.3 3.325C2.43333 4.19167 2 5.25 2 6.5C2 7.75 2.43333 8.81667 3.3 9.7C4.18333 10.5667 5.25 11 6.5 11Z" fill="black" fill-opacity="0.6"/>
</svg>
