<svg viewBox="0 0 16 16" fill="none" xmlns="http://www.w3.org/2000/svg">
<rect width="16" height="16" rx="8" fill="url(#paint0_linear_985_3379)"/>
<path d="M3.58433 8.01348C5.86603 7.02563 7.38752 6.37437 8.1488 6.05972C10.3224 5.16132 10.7741 5.00526 11.0684 5.00005C11.1332 4.99897 11.278 5.01492 11.3717 5.09053C11.4509 5.15438 11.4727 5.24063 11.4831 5.30116C11.4936 5.3617 11.5065 5.49959 11.4962 5.60734C11.3784 6.83719 10.8688 9.82169 10.6095 11.1991C10.4998 11.782 10.2837 11.9774 10.0746 11.9965C9.62005 12.0381 9.27491 11.698 8.83468 11.4113C8.14582 10.9626 7.75665 10.6832 7.08798 10.2453C6.31523 9.73931 6.81617 9.46118 7.25657 9.00664C7.37182 8.88769 9.37445 7.07758 9.41321 6.91338C9.41806 6.89284 9.42256 6.81629 9.3768 6.77587C9.33103 6.73544 9.26348 6.74927 9.21474 6.76026C9.14565 6.77584 8.04518 7.49865 5.91332 8.92867C5.60095 9.14182 5.31802 9.24567 5.06452 9.24023C4.78506 9.23423 4.24749 9.08321 3.84786 8.95413C3.35771 8.7958 2.96814 8.71209 3.00206 8.44319C3.01973 8.30313 3.21382 8.1599 3.58433 8.01348Z" fill="white"/>
<defs>
<linearGradient id="paint0_linear_985_3379" x1="8" y1="0" x2="8" y2="16" gradientUnits="userSpaceOnUse">
<stop stop-color="#2AABEE"/>
<stop offset="1" stop-color="#229ED9"/>
</linearGradient>
</defs>
</svg>
