<svg width="16" height="16" viewBox="0 0 16 16" fill="none" xmlns="http://www.w3.org/2000/svg">
<rect width="16" height="16" rx="8" fill="#1D9BF0"/>
<path d="M12.356 5.53528C12.0242 5.68231 11.6678 5.78166 11.293 5.82656C11.6753 5.59767 11.9686 5.23446 12.1069 4.8021C11.7492 5.01431 11.353 5.16849 10.9314 5.25115C10.5936 4.89191 10.1128 4.66699 9.58029 4.66699C8.55822 4.66699 7.72927 5.49594 7.72927 6.5188C7.72927 6.66345 7.74596 6.80413 7.77696 6.94003C6.23789 6.86254 4.87446 6.12539 3.96127 5.00556C3.80232 5.27976 3.71092 5.59767 3.71092 5.93624C3.71092 6.57841 4.03797 7.14548 4.5343 7.4773C4.2307 7.46736 3.94538 7.38431 3.69582 7.24562V7.26946C3.69582 8.16636 4.33362 8.91464 5.18085 9.08472C5.02507 9.12684 4.86175 9.14909 4.69326 9.14909C4.57404 9.14909 4.45761 9.13797 4.34475 9.11651C4.5804 9.85167 5.2639 10.3873 6.07417 10.4016C5.44034 10.8984 4.64199 11.1944 3.7749 11.1944C3.62548 11.1944 3.47805 11.1857 3.33301 11.1686C4.15241 11.6943 5.12521 12.0003 6.17033 12.0003C9.57592 12.0003 11.4377 9.17969 11.4377 6.73339C11.4377 6.65391 11.4357 6.57364 11.4321 6.49417C11.7937 6.23269 12.1077 5.90723 12.3552 5.53647L12.356 5.53528Z" fill="white"/>
</svg>
