<svg width="40" height="40" viewBox="0 0 40 40" fill="none" xmlns="http://www.w3.org/2000/svg">
<rect width="40" height="40" rx="20" fill="#3B99FC"/>
<path d="M11.634 14.7252C16.2542 10.2029 23.7461 10.2029 28.3663 14.7252L28.9226 15.2692C28.9774 15.3224 29.021 15.386 29.0508 15.4563C29.0806 15.5266 29.0959 15.6022 29.0959 15.6786C29.0959 15.755 29.0806 15.8306 29.0508 15.9009C29.021 15.9712 28.9774 16.0348 28.9226 16.088L27.0204 17.9497C26.9643 18.004 26.8892 18.0344 26.8111 18.0344C26.733 18.0344 26.6579 18.004 26.6018 17.9497L25.8366 17.2006C22.6137 14.0465 17.3874 14.0465 14.1637 17.2006L13.3442 18.0025C13.2881 18.0568 13.213 18.0872 13.1349 18.0872C13.0568 18.0872 12.9817 18.0568 12.9256 18.0025L11.0234 16.1408C10.9686 16.0876 10.9249 16.024 10.8952 15.9537C10.8654 15.8834 10.85 15.8078 10.85 15.7314C10.85 15.655 10.8654 15.5794 10.8952 15.5091C10.9249 15.4388 10.9686 15.3752 11.0234 15.322L11.634 14.7252ZM32.3009 18.5748L33.9935 20.2322C34.0483 20.2854 34.0919 20.349 34.1217 20.4193C34.1515 20.4896 34.1668 20.5652 34.1668 20.6416C34.1668 20.718 34.1515 20.7935 34.1217 20.8639C34.0919 20.9342 34.0483 20.9978 33.9935 21.051L26.36 28.5222C26.2479 28.6311 26.0977 28.6921 25.9414 28.6921C25.7851 28.6921 25.635 28.6311 25.5229 28.5222L20.1054 23.2195C20.0774 23.1921 20.0397 23.1768 20.0005 23.1768C19.9614 23.1768 19.9237 23.1921 19.8957 23.2195L14.4782 28.5222C14.3661 28.6311 14.216 28.6921 14.0596 28.6921C13.9033 28.6921 13.7532 28.6311 13.6411 28.5222L6.00684 21.051C5.952 20.9978 5.9084 20.9342 5.87862 20.8639C5.84884 20.7935 5.8335 20.718 5.8335 20.6416C5.8335 20.5652 5.84884 20.4896 5.87862 20.4193C5.9084 20.349 5.952 20.2854 6.00684 20.2322L7.7002 18.5748C7.81227 18.4661 7.96225 18.4054 8.11837 18.4054C8.27449 18.4054 8.42447 18.4661 8.53654 18.5748L13.9541 23.8776C13.9821 23.9049 14.0197 23.9203 14.0589 23.9203C14.0981 23.9203 14.1357 23.9049 14.1637 23.8776L19.5812 18.5748C19.6933 18.4659 19.8435 18.405 19.9998 18.405C20.1561 18.405 20.3062 18.4659 20.4183 18.5748L25.8366 23.8776C25.8646 23.9049 25.9023 23.9203 25.9414 23.9203C25.9806 23.9203 26.0183 23.9049 26.0463 23.8776L31.4638 18.5748C31.5759 18.4659 31.726 18.405 31.8823 18.405C32.0386 18.405 32.1888 18.4659 32.3009 18.5748Z" fill="white"/>
</svg>
