<svg viewBox="0 0 16 16" fill="none" xmlns="http://www.w3.org/2000/svg">
<rect width="16" height="16" rx="8" fill="#777777"/>
<path d="M8.00006 12.2667C7.41488 12.2667 6.86303 12.1556 6.34451 11.9334C5.82599 11.7112 5.37044 11.4075 4.97784 11.0223C4.59266 10.6297 4.28895 10.1741 4.06673 9.65562C3.84451 9.1371 3.7334 8.58525 3.7334 8.00007C3.7334 7.40747 3.84451 6.85562 4.06673 6.34451C4.28895 5.82599 4.59266 5.37414 4.97784 4.98895C5.37044 4.59636 5.82599 4.28895 6.34451 4.06673C6.86303 3.84451 7.41488 3.7334 8.00006 3.7334C8.59266 3.7334 9.14451 3.84451 9.65562 4.06673C10.1741 4.28895 10.626 4.59636 11.0112 4.98895C11.4038 5.37414 11.7112 5.82599 11.9334 6.34451C12.1556 6.85562 12.2667 7.40747 12.2667 8.00007C12.2667 8.58525 12.1556 9.1371 11.9334 9.65562C11.7112 10.1741 11.4038 10.6297 11.0112 11.0223C10.626 11.4075 10.1741 11.7112 9.65562 11.9334C9.14451 12.1556 8.59266 12.2667 8.00006 12.2667ZM8.00006 11.4334C8.12599 11.3075 8.25192 11.0741 8.37784 10.7334C8.50377 10.3853 8.60007 10.0075 8.66673 9.60007H7.3334C7.40007 10.0075 7.49636 10.3853 7.62229 10.7334C7.74821 11.0741 7.87414 11.3075 8.00006 11.4334ZM6.98895 11.3223C6.88525 11.1001 6.79266 10.8445 6.71118 10.5556C6.6371 10.2667 6.57414 9.94821 6.52229 9.60007H4.9334C5.14821 10.0223 5.4334 10.3853 5.78895 10.689C6.14451 10.9853 6.54451 11.1964 6.98895 11.3223ZM9.01118 11.3223C9.45562 11.1964 9.85562 10.9853 10.2112 10.689C10.5667 10.3853 10.8519 10.0223 11.0667 9.60007H9.47784C9.42599 9.94821 9.35932 10.2667 9.27784 10.5556C9.20377 10.8445 9.11488 11.1001 9.01118 11.3223ZM9.57784 8.80007H11.3667C11.4038 8.65932 11.4297 8.52599 11.4445 8.40007C11.4593 8.26673 11.4667 8.1334 11.4667 8.00007C11.4667 7.86673 11.4593 7.7334 11.4445 7.60007C11.4297 7.46673 11.4038 7.3334 11.3667 7.20007H9.57784C9.59266 7.34081 9.60007 7.48155 9.60007 7.62229C9.60747 7.75562 9.61118 7.88895 9.61118 8.02229C9.61118 8.15562 9.60747 8.28895 9.60007 8.42229C9.60007 8.54821 9.59266 8.67414 9.57784 8.80007ZM7.2334 8.80007H8.76673C8.78155 8.65192 8.78895 8.51488 8.78895 8.38895C8.79636 8.25562 8.80007 8.12599 8.80007 8.00007C8.80007 7.87414 8.79636 7.74451 8.78895 7.61118C8.78895 7.47784 8.78155 7.34081 8.76673 7.20007H7.2334C7.21858 7.34081 7.20747 7.47784 7.20007 7.61118C7.20007 7.74451 7.20007 7.87414 7.20007 8.00007C7.20007 8.12599 7.20007 8.25562 7.20007 8.38895C7.20747 8.52229 7.21858 8.65932 7.2334 8.80007ZM4.6334 8.80007H6.42229C6.40747 8.65932 6.39636 8.52229 6.38895 8.38895C6.38895 8.24821 6.38895 8.11118 6.38895 7.97784C6.38895 7.84451 6.38895 7.71488 6.38895 7.58895C6.39636 7.45562 6.40747 7.32599 6.42229 7.20007H4.6334C4.59636 7.34081 4.57044 7.47784 4.55562 7.61118C4.54081 7.7371 4.5334 7.86673 4.5334 8.00007C4.5334 8.1334 4.54081 8.26673 4.55562 8.40007C4.57044 8.52599 4.59636 8.65932 4.6334 8.80007ZM9.47784 6.40007H11.0667C10.8519 5.97784 10.5667 5.61858 10.2112 5.32229C9.85562 5.01858 9.45562 4.80377 9.01118 4.67784C9.11488 4.90007 9.20377 5.15562 9.27784 5.44451C9.35932 5.7334 9.42599 6.05192 9.47784 6.40007ZM7.3334 6.40007H8.66673C8.60007 5.99266 8.50377 5.61858 8.37784 5.27784C8.25192 4.92969 8.12599 4.69266 8.00006 4.56673C7.87414 4.69266 7.74821 4.92969 7.62229 5.27784C7.49636 5.61858 7.40007 5.99266 7.3334 6.40007ZM4.9334 6.40007H6.52229C6.57414 6.05192 6.6371 5.7334 6.71118 5.44451C6.79266 5.15562 6.88525 4.90007 6.98895 4.67784C6.54451 4.80377 6.14451 5.01858 5.78895 5.32229C5.4334 5.61858 5.14821 5.97784 4.9334 6.40007Z" fill="white"/>
</svg>
